<?xml version="1.0" standalone="no"?>
<!DOCTYPE svg PUBLIC "-//W3C//DTD SVG 1.1//EN" "http://www.w3.org/Graphics/SVG/1.1/DTD/svg11.dtd" >
<svg xmlns="http://www.w3.org/2000/svg">
<metadata>Generated by IcoMoon</metadata>
<defs>
<font id="lagou" horiz-adv-x="1024">
<font-face units-per-em="1024" ascent="960" descent="-64" />
<missing-glyph horiz-adv-x="1024" />
<glyph unicode="&#x20;" horiz-adv-x="512" d="" />
<glyph unicode="&#xe900;" glyph-name="double-arrow-left" horiz-adv-x="914" d="M455.808 462.098l450.304 450.304c10.898 10.862 10.898 28.526 0 39.424v0c-10.862 10.898-28.526 10.898-39.424 0l-461.388-461.388c-3.876-1.337-7.514-3.554-10.603-6.653-5.929-5.949-8.632-13.913-8.093-21.687-0.54-7.774 2.164-15.738 8.093-21.687 3.088-3.099 6.726-5.316 10.603-6.653l461.388-461.388c10.898-10.898 28.562-10.898 39.424 0v0c10.898 10.898 10.898 28.562 0 39.424l-450.304 450.304zM90.094 462.098l450.304 450.304c10.898 10.862 10.898 28.526 0 39.424v0c-10.862 10.898-28.526 10.898-39.424 0l-461.388-461.388c-3.876-1.337-7.514-3.554-10.603-6.653-5.929-5.949-8.632-13.913-8.093-21.687-0.54-7.774 2.164-15.738 8.093-21.687 3.088-3.099 6.726-5.316 10.603-6.653l461.388-461.388c10.898-10.898 28.562-10.898 39.424 0v0c10.898 10.898 10.898 28.562 0 39.424l-450.304 450.304z" />
<glyph unicode="&#xe901;" glyph-name="double-arrow-right" horiz-adv-x="914" d="M458.478 462.098l-450.304 450.304c-10.898 10.862-10.898 28.526 0 39.424v0c10.862 10.898 28.526 10.898 39.424 0l461.388-461.388c3.876-1.337 7.514-3.554 10.603-6.653 5.929-5.949 8.632-13.913 8.093-21.687 0.54-7.774-2.164-15.738-8.093-21.687-3.088-3.099-6.726-5.316-10.603-6.653l-461.388-461.388c-10.898-10.898-28.562-10.898-39.424 0v0c-10.898 10.898-10.898 28.562 0 39.424l450.304 450.304zM824.192 462.098l-450.304 450.304c-10.898 10.862-10.898 28.526 0 39.424v0c10.862 10.898 28.526 10.898 39.424 0l461.388-461.388c3.876-1.337 7.514-3.554 10.603-6.653 5.929-5.949 8.632-13.913 8.093-21.687 0.54-7.774-2.164-15.738-8.093-21.687-3.088-3.099-6.726-5.316-10.603-6.653l-461.388-461.388c-10.898-10.898-28.562-10.898-39.424 0v0c-10.898 10.898-10.898 28.562 0 39.424l450.304 450.304z" />
<glyph unicode="&#xe902;" glyph-name="strong" horiz-adv-x="768" d="M2.038 958.443v0c0 0 268.969 0 480.893 0 0 0 236.473-29.382 236.473-245.977s-145.26-227.817-145.26-227.817c0 0 192.802 0 192.802-255.916s-284.015-289.305-284.015-289.305h-480.893v1019.015zM144.87 836.954v-310.695h289.053c0 0 153.16 31.649 153.16 170.977s-172.282 139.328-172.282 139.328l-269.931 0.389zM146.565 406.557v-343.511h289.053c0 0 200.405 0 200.405 171.756s-200.405 171.756-200.405 171.756h-289.053z" />
<glyph unicode="&#xe903;" glyph-name="underline" horiz-adv-x="693" d="M1.532 958.039h78.837v-602.507c0 0 77.55-155.051 261.59-155.051s269.348 155.321 269.348 155.321v602.237h71.079v-645.038c0 0-113.892-192.19-340.427-192.19s-340.427 192.19-340.427 192.19v645.038zM4.707 17.483h687.485v-78.58h-687.485v78.58z" />
<glyph unicode="&#xe904;" glyph-name="orderedList" horiz-adv-x="1429" d="M302.117 896.022h1126.72v-113.738h-1126.72v113.738zM302.117 512.156h1126.72v-113.738h-1126.72v113.738zM302.117 128.289h1126.72v-113.738h-1126.72v113.738zM62.423 958.501h43.818v-222.423h-50.816v141.451h-34.988v38.32h8.164c10.663 0 18.966 2.943 24.908 8.83s8.914 14.662 8.914 26.324v7.497zM14.106 554.974c20.326 8.442 38.598 12.662 54.814 12.662 20.993 0 37.876-5.665 50.649-16.994s19.16-26.046 19.16-44.151c0-14.217-3.554-26.407-10.663-36.571s-20.659-23.575-40.653-40.236c-14.328-11.885-23.297-20.604-26.907-26.158s-5.637-12.162-6.081-19.826h87.969v-42.152h-138.952v26.657c0 21.437 3.332 38.126 9.997 50.066s21.492 27.574 44.485 46.9c10.885 9.219 17.966 16.133 21.243 20.743s4.915 9.413 4.915 14.412c0 6.553-2.555 12.079-7.664 16.578s-11.829 6.748-20.16 6.748c-12.218 0-26.269-5.887-42.152-17.661v48.983zM9.441 160.111c17.105 8.664 34.877 12.995 53.315 12.995 11.329 0 22.187-1.999 32.572-5.998s18.882-10.33 25.491-18.993c6.609-8.664 9.913-18.827 9.913-30.489 0-11.329-3.138-21.298-9.413-29.906s-15.744-15.856-28.407-21.742c16.217-2.777 28.379-8.58 36.487-17.411s12.162-20.743 12.162-35.738c0-20.104-7.331-36.709-21.992-49.816s-33.71-19.66-57.147-19.66c-16.661 0-34.321 3.943-52.982 11.829v48.816c15.217-11.107 30.267-16.661 45.151-16.661 9.108 0 16.855 2.916 23.242 8.747s9.58 12.912 9.58 21.243c0 7.997-3.11 14.523-9.33 19.577s-14.162 7.581-23.825 7.581h-23.325v38.653h15.328c8.886 0 16.217 1.999 21.992 5.998s8.664 9.663 8.664 16.994c0 6.775-2.555 12.357-7.664 16.744s-11.552 6.581-19.327 6.581c-11.552 0-25.047-5.72-40.486-17.161v47.817z" />
<glyph unicode="&#xe905;" glyph-name="unorderedList" horiz-adv-x="1673" d="M366.766 960h1306.346v-131.871h-1306.346v131.871zM366.766 514.936h1306.346v-131.871h-1306.346v131.871zM366.766 69.872h1306.346v-131.871h-1306.346v131.871zM0 960h193.685v-131.871h-193.685v131.871zM0 514.936h193.685v-131.871h-193.685v131.871zM0 69.872h193.685v-131.871h-193.685v131.871z" />
<glyph unicode="&#xe906;" glyph-name="createLink" d="M241.129 546.483l-240.33-239.044v-142.418l221.541-226.414 139.12 14.624 228.691 211.789 12.706 142.418h-80.423v-111.704l-193.152-179.428h-88.153l-175.155 179.428 12.017 87.39 185.352 181.93h110.565v81.429h-132.78zM780.893 352.125l240.33 239.044v142.418l-221.541 226.414-139.12-14.624-228.691-211.789-12.706-142.418h80.423v111.704l193.152 179.428h88.153l175.155-179.428-12.017-87.39-185.352-181.93h-110.565v-81.429h132.78zM619.546 636.484l65.984-63.72-318.535-329.853-65.984 63.72 318.535 329.853z" />
<glyph unicode="&#xe907;" glyph-name="unlink" horiz-adv-x="1575" d="M281.558 650.196l-281.558-280.051v-166.849l259.545-265.255 162.986 17.133 267.922 248.121 14.886 166.849h-94.22v-130.867l-226.287-210.208h-103.276l-205.202 210.208 14.079 102.382 217.149 213.139h129.533v95.397h-155.558zM669.882 547.753l-240.866-253.206-77.303 74.651 246.659 250.957 71.511-72.402zM866.446 217.116l316.511-239.842 165.225 23.221 226.551 293.936-39.65 159.016-282.994 230.783-167.297-8.48 13.113-93.303 129.593 18.213 239.655-194.829 14.373-102.271-179.604-232.46-103.345-0.307-241.286 185.372-18.027 128.272-94.469-13.277 21.649-154.044zM1128.807 291.262l-257.371 236.411 73.291 78.595 255.224-242.242-71.143-72.763zM454.818 912.845l75.465 47.155 107.323-208.866-30.118-18.82-152.67 180.53zM895.363 894.084l74.63-48.465-142.2-186.668-38.979 25.313 106.549 209.82z" />
<glyph unicode="&#xe908;" glyph-name="fullscreen" d="M846.507 802.987h-378.88v51.2h430.080v-406.187h-51.2v354.987zM167.253 93.013h378.88v-51.2h-430.080v406.187h51.2v-354.987zM0 960v-1024h1024v1024h-1024zM51.2 919.040h921.6v-921.6h-921.6v921.6zM197.973 202.24h61.44v-61.44h-61.44v61.44zM259.413 263.68h61.44v-61.44h-61.44v61.44zM320.853 325.12h61.44v-61.44h-61.44v61.44zM382.293 386.56h61.44v-61.44h-61.44v61.44zM443.733 448h61.44v-61.44h-61.44v61.44zM508.587 509.44h61.44v-61.44h-61.44v61.44zM570.027 570.88h61.44v-61.44h-61.44v61.44zM631.467 632.32h61.44v-61.44h-61.44v61.44zM692.907 693.76h61.44v-61.44h-61.44v61.44zM754.347 755.2h61.44v-61.44h-61.44v61.44z" />
<glyph unicode="&#xe909;" glyph-name="community" d="M899.557 698.311c15.386 24.566 31.806 54.691 42.925 85.204 14.998 41.374 9.438 79.386-14.739 101.754-23.273 21.333-59.087 23.919-95.806 6.982-8.663-4.008-15.774-7.37-23.014-10.861-13.576-6.594-19.135-22.885-12.541-36.461s22.885-19.135 36.461-12.541c6.723 3.232 13.576 6.465 21.851 10.343 15.644 7.24 29.867 8.145 36.073 2.327 5.56-5.042 8.921-19.394 0.388-43.055-11.636-32.194-34.392-72.663-62.19-110.933-97.228-133.43-184.76-235.442-267.766-311.855-0.129-0.129-0.129-0.129-0.259-0.259-107.442-101.366-210.101-176.097-292.59-236.218l-7.758-5.56c-1.034-0.776-2.069-1.422-3.103-2.198-89.6 74.214-146.747 186.311-146.747 311.467 0 223.16 181.527 404.687 404.687 404.687 56.889 0 111.838-11.507 163.426-34.392 13.705-6.077 29.867 0.129 35.943 13.964 6.077 13.705-0.129 29.867-13.964 35.943-58.44 25.988-120.889 39.046-185.277 39.046-122.699 0-238.028-47.709-324.655-134.465-86.756-86.756-134.465-202.085-134.465-324.655 0-78.481 19.523-153.859 56.372-220.703-16.291-21.592-38.788-55.467-55.467-97.487-14.352-35.943-9.826-70.335 11.895-92.057 9.051-9.051 26.117-20.428 54.044-20.428 15.257 0 33.745 3.362 55.984 12.283 23.919 9.568 50.036 23.402 76.412 39.822 75.895-52.364 165.883-80.679 260.137-80.679 122.699 0 238.028 47.709 324.655 134.465 86.756 86.756 134.465 202.085 134.465 324.655-0.259 90.117-26.117 177.002-75.378 251.863v0zM158.709 78.61c-28.962-11.636-45.64-9.309-51.2-3.749s-5.43 18.877 0.259 33.228c10.731 27.022 24.307 50.295 36.331 68.137 13.964-19.135 29.608-37.366 46.675-54.432 6.077-6.077 12.412-12.024 18.877-17.842-17.842-10.343-35.297-19.006-50.941-25.341v0zM515.557 41.762c-77.446 0-149.851 21.851-211.394 59.733 83.135 60.509 185.794 135.628 294.141 237.77 83.523 76.929 171.184 178.424 267.636 309.915 35.685-61.414 54.303-130.844 54.303-202.731 0-223.16-181.527-404.687-404.687-404.687v0zM365.707 676.978c0 20.428 8.404 40.727 22.885 55.079 14.481 14.481 34.78 22.885 55.079 22.885 20.428 0 40.727-8.404 55.079-22.885 14.481-14.481 22.885-34.78 22.885-55.079 0-20.428-8.404-40.727-22.885-55.079-14.481-14.481-34.78-22.885-55.079-22.885-20.428 0-40.727 8.404-55.079 22.885-14.481 14.352-22.885 34.651-22.885 55.079v0zM250.507 427.184c0 11.766 4.784 23.402 13.188 31.677 8.275 8.275 19.911 13.188 31.677 13.188s23.402-4.784 31.677-13.188c8.275-8.275 13.188-19.911 13.188-31.677s-4.784-23.402-13.188-31.677c-8.275-8.275-19.911-13.188-31.677-13.188s-23.402 4.784-31.677 13.188c-8.275 8.275-13.188 19.911-13.188 31.677v0zM615.501 211.911c0 7.628 3.103 15.127 8.533 20.558 5.43 5.301 12.929 8.533 20.558 8.533s15.127-3.103 20.558-8.533c5.301-5.301 8.533-12.929 8.533-20.558s-3.103-15.127-8.533-20.428c-5.301-5.43-12.929-8.533-20.558-8.533s-15.127 3.103-20.558 8.533c-5.301 5.301-8.533 12.8-8.533 20.428v0z" />
<glyph unicode="&#xe90a;" glyph-name="position-edit" d="M593.728 632.64l134.912-134.912-317.376-317.376-134.912 134.976 317.376 317.312zM230.912 269.76l134.848-134.848-202.304-67.456 67.456 202.304zM728.704 769.6l136.896-136.896-91.072-91.072-136.896 136.896 91.072 91.072z" />
<glyph unicode="&#xe90b;" glyph-name="position-refresh" d="M802.238 434.837c0-154.387-125.587-279.975-279.975-279.975s-279.975 125.587-279.975 279.975c0 149.188 117.388 271.137 264.6 279.188v-84.763c0-2.762 1.487-5.35 3.887-6.75 1.213-0.7 2.55-1.038 3.887-1.038s2.675 0.338 3.888 1.038l202.087 116.662c2.4 1.4 3.888 3.975 3.888 6.75 0 2.762-1.488 5.35-3.888 6.75l-202.087 116.65c-2.425 1.4-5.35 1.4-7.775 0-2.4-1.4-3.887-3.975-3.887-6.75v-86.338c-181.513-8.112-326.825-157.912-326.825-341.4 0-188.687 153.512-342.188 342.2-342.188s342.188 153.5 342.188 342.188h-62.212z" />
<glyph unicode="&#xe90c;" glyph-name="position-offline" d="M736 608h-64v64c0 35.3-28.7 64-64 64h-192c-35.3 0-64-28.7-64-64v-64h-64c-70.7 0-128-57.3-128-128v-256c0-70.7 57.3-128 128-128h448c70.7 0 128 57.3 128 128v256c0 70.7-57.3 128-128 128zM416 672h192v-64h-192v64zM256.9 549.8v0zM288 160c-35.3 0-64 28.7-64 64v256c0 4 0.4 7.8 1.1 11.7v0c0 0 0 0.1 0 0.1l533.4-327.7c-7-2.6-14.6-4.1-22.5-4.1h-448zM793.2 195.3c0.7 1.3 1.3 2.6 1.8 4-0.6-1.4-1.2-2.7-1.8-4zM810.6 209.6l-11.1 6.8c-0.3-3-0.9-5.9-1.7-8.8 0.8 2.9 1.3 5.8 1.7 8.8l-529.2 325.1c5.6 1.6 11.5 2.5 17.7 2.5h448c35.3 0 64-28.7 64-64v-256c0-2.6-0.2-5.1-0.5-7.6l11.1-6.8z" />
<glyph unicode="&#xe90d;" glyph-name="position-share" d="M493.2 468.5l-260.2 260.2c-12 12-31.4 12-43.3 0v0c-12-12-12-31.4 0-43.4l238.6-238.6-238.6-238.6c-12-12-12-31.4 0-43.3v0c12-12 31.4-12 43.3 0l260.2 260.2c6 6 9 13.9 9 21.8 0 7.8-3 15.7-9 21.7zM813.2 468.5l-260.2 260.2c-12 12-31.4 12-43.3 0-12-12-12-31.4 0-43.4l238.6-238.6-238.6-238.6c-12-12-12-31.4 0-43.3v0c12-12 31.4-12 43.3 0l260.2 260.2c6 6 9 13.9 9 21.8 0 7.8-3 15.7-9 21.7z" />
<glyph unicode="&#xe90e;" glyph-name="unsilence" d="M594.752 63.36c-11.84-36.864-39.040-63.36-69.76-63.36s-57.92 26.496-69.696 63.36h139.456zM663.040 127.36h-276.096c-0.896-7.68-1.984-15.36-1.984-23.36 0-92.8 62.656-168 140.032-168s140.032 75.2 140.032 168c0 8-1.088 15.68-1.984 23.36v0zM193.024 63.616v0c-5.312 0-10.176 1.408-14.976 3.008 4.672-1.792 9.6-3.008 14.976-3.008zM166.784 72.512v0zM891.136 72.448c-3.456-2.304-7.232-4.224-11.136-5.76 4.096 1.344 7.616 3.392 11.136 5.76zM484.032 896.704h91.456c5.888 0 11.712-0.704 17.536-1.152v64.448h-128v-64.512c6.016 0.512 12.096 1.216 18.24 1.216h0.768zM512 896.704v-56.384c-3.776 0-7.232-1.024-10.944-1.152 6.144 0.384 12.224 1.152 18.496 1.152h27.264c121.024 0 209.408-88.256 232.512-201.6-0.32 1.536-0.448 3.136-0.768 4.672l51.264 47.808c12.288-33.728 19.264-68.8 19.264-103.040v-212.992l0.768-0.704v213.76c0 140.288-113.472 295.36-256.768 307.264-5.888 0.512-11.712 1.216-17.6 1.216h-63.488zM829.76 691.264l-51.264-47.808c0.32-1.536 0.448-3.136 0.768-4.672 1.088-5.504 1.984-11.008 2.816-16.64 1.344-9.216 1.984-18.56 2.432-28.032 0.064-2.624 0.512-5.184 0.512-7.872v-253.12c0-7.936-1.664-14.528-2.368-21.888h1.408l16.576-14.848 41.984-169.024h-10.176l58.816-54.848c12.8 8.64 21.76 22.592 21.76 39.232l-48 192.256c0 14.528-6.72 27.072-16.896 35.904 0.064 2.816 0.896 5.248 0.896 8.128v240.192c0 34.24-6.976 69.312-19.264 103.040zM832.448 127.36h-617.088l41.984 169.024 16.576 14.848h1.408c-0.704 7.36-2.368 13.952-2.368 21.888v247.040c0-0.128 0-0.192 0-0.32v-145.6l-64-59.712v-26.56c0-2.88 0.768-5.312 0.896-8.128-10.112-8.832-16.896-21.376-16.896-35.904l-48-192.256c0-16.64 8.96-30.592 21.76-39.168 0.064 0 0.064-0.064 0.128-0.064 3.52-2.368 7.040-4.416 11.136-5.76 4.8-1.6 9.664-3.008 14.976-3.008h672c5.376 0 10.304 1.216 14.976 3.008 3.904 1.536 7.68 3.456 11.136 5.76 0 0 0.064 0 0.128 0.064v0l-58.752 54.848zM273.024 579.84c0 0.128 0 0.192 0 0.32 0 17.408 1.536 34.432 4.416 51.008 0 0.064 0 0.192 0.064 0.256 14.464 81.856 63.232 151.104 133.504 185.536 1.984 0.896 3.712 2.112 5.76 3.008 11.2 5.056 23.232 8.704 35.392 11.904 7.552 1.92 15.36 3.264 23.232 4.544 8.384 1.344 16.896 2.368 25.728 2.752 3.648 0.128 7.104 1.152 10.88 1.152v56.384h-28.736c-6.144 0-12.224-0.704-18.24-1.216-5.696-0.512-11.328-1.152-16.896-2.048-1.6-0.256-3.2-0.64-4.864-0.96-115.392-22.016-207.424-135.616-229.184-252.544 0-0.064 0-0.064 0-0.128-3.2-17.216-5.056-34.56-5.056-51.648v-213.696l64 59.712v145.664z" />
<glyph unicode="&#xe90f;" glyph-name="add-hover" d="M512 960c-282.784 0-512-229.216-512-512s229.216-512 512-512c282.784 0 512 229.216 512 512s-229.216 512-512 512zM768 396.8h-204.8v-204.8c0-28.256-22.944-51.2-51.2-51.2s-51.2 22.944-51.2 51.2v204.8h-204.8c-28.256 0-51.2 22.944-51.2 51.2s22.944 51.2 51.2 51.2h204.8v204.8c0 28.256 22.944 51.2 51.2 51.2s51.2-22.944 51.2-51.2v-204.8h204.8c28.256 0 51.2-22.944 51.2-51.2s-22.944-51.2-51.2-51.2z" />
<glyph unicode="&#xe910;" glyph-name="add" d="M51.2 499.2h921.6c30.72 0 51.2-20.48 51.2-51.2s-20.48-51.2-51.2-51.2h-921.6c-30.72 0-51.2 20.48-51.2 51.2s20.48 51.2 51.2 51.2zM512 960c30.72 0 51.2-20.48 51.2-51.2v-921.6c0-30.72-20.48-51.2-51.2-51.2s-51.2 20.48-51.2 51.2v921.6c0 30.72 20.48 51.2 51.2 51.2z" />
<glyph unicode="&#xe911;" glyph-name="addperson" d="M479.040 922.752c-141.504 0-256.192-114.624-256.192-256s114.688-256 256.192-256c141.504 0 256.192 114.624 256.192 256 0 141.44-114.688 256-256.192 256zM478.144 475.072c-106.112 0-192.128 86.080-192.128 192.32s86.016 192.32 192.128 192.32 192.128-86.080 192.128-192.32c0-106.24-86.016-192.32-192.128-192.32zM155.136 58.368c0 196.992 159.36 356.736 355.904 356.736 43.968 0 85.824-8.384 124.672-22.976 14.208 17.28 29.632 32.832 46.144 46.848-52.032 23.488-109.696 36.928-170.56 36.928-229.696 0-415.936-186.56-415.936-416.64 0-10.816 0.832-21.44 1.6-32.064h59.712c-0.832 10.304-1.536 20.608-1.536 31.168zM735.488 299.84l-0.32-225.472c0-26.24 14.080-47.488 31.552-47.488 17.408 0 31.552 21.248 31.552 47.488l-0.704 225.472c0 26.24-13.12 47.488-30.528 47.488s-31.552-21.248-31.552-47.488zM655.488 155.584l222.912-0.256c26.432 0 47.808 14.208 47.808 31.68s-21.44 31.68-47.808 31.68l-222.912-0.704c-26.432 0-47.808-13.184-47.808-30.72s21.376-31.68 47.808-31.68z" />
<glyph unicode="&#xe912;" glyph-name="arrow-down" d="M511.086 252.526l-450.304 450.304c-10.862 10.898-28.526 10.898-39.424 0v0c-10.898-10.862-10.898-28.526 0-39.424l461.388-461.388c1.337-3.876 3.554-7.514 6.653-10.603 5.949-5.929 13.913-8.632 21.687-8.093 7.774-0.54 15.738 2.164 21.687 8.093 3.099 3.088 5.316 6.726 6.653 10.603l461.388 461.388c10.898 10.898 10.898 28.562 0 39.424v0c-10.898 10.898-28.562 10.898-39.424 0l-450.304-450.304z" />
<glyph unicode="&#xe913;" glyph-name="arrow-left" d="M316.526 448.914l450.304 450.304c10.898 10.862 10.898 28.526 0 39.424v0c-10.862 10.898-28.526 10.898-39.424 0l-461.388-461.388c-3.876-1.337-7.514-3.554-10.603-6.653-5.929-5.949-8.632-13.913-8.093-21.687-0.54-7.774 2.164-15.738 8.093-21.687 3.088-3.099 6.726-5.316 10.603-6.653l461.388-461.388c10.898-10.898 28.562-10.898 39.424 0 10.898 10.898 10.898 28.562 0 39.424l-450.304 450.304z" />
<glyph unicode="&#xe914;" glyph-name="arrow-right" d="M696.192 462.098l-450.304 450.304c-10.898 10.862-10.898 28.526 0 39.424v0c10.862 10.898 28.526 10.898 39.424 0l461.388-461.388c3.876-1.337 7.514-3.554 10.603-6.653 5.929-5.949 8.632-13.913 8.093-21.687 0.54-7.774-2.164-15.738-8.093-21.687-3.088-3.099-6.726-5.316-10.603-6.653l-461.388-461.388c-10.898-10.898-28.562-10.898-39.424 0v0c-10.898 10.898-10.898 28.562 0 39.424l450.304 450.304z" />
<glyph unicode="&#xe915;" glyph-name="arrow-up" d="M512.914 643.474l450.304-450.304c10.862-10.898 28.526-10.898 39.424 0v0c10.898 10.862 10.898 28.526 0 39.424l-461.388 461.388c-1.337 3.876-3.554 7.514-6.653 10.603-5.949 5.929-13.913 8.632-21.687 8.093-7.774 0.54-15.738-2.164-21.687-8.093-3.099-3.088-5.316-6.726-6.653-10.603l-461.388-461.388c-10.898-10.898-10.898-28.562 0-39.424v0c10.898-10.898 28.562-10.898 39.424 0l450.304 450.304z" />
<glyph unicode="&#xe916;" glyph-name="candidate" d="M508.864 242.432c172.8 0 316.928-131.392 350.4-306.112h107.264c-25.856 229.888-220.768 408.672-457.664 408.672s-431.808-178.752-457.664-408.672h107.264c33.472 174.752 177.6 306.112 350.4 306.112zM508.864 754.88c113.344 0 205.568-91.968 205.568-204.992s-92.224-204.992-205.568-204.992c-113.344 0-205.568 91.968-205.568 204.992 0 112.992 92.224 204.992 205.568 204.992zM508.864 857.28c-170.080 0-307.968-137.632-307.968-307.392s137.888-307.392 307.968-307.392c170.080 0 307.968 137.632 307.968 307.392s-137.888 307.392-307.968 307.392v0zM560.064 806.080c0 0-173.76 46.496-204.8 153.6 0 0-144.032-185.408-51.2-256l256 102.4zM455.744 242.688h102.4l-51.2-256-51.2 256z" />
<glyph unicode="&#xe917;" glyph-name="channel" d="M466.528 192h102.4c28.256 0 51.2-22.944 51.2-51.2v-102.4c0-28.256-22.944-51.2-51.2-51.2h-102.4c-28.256 0-51.2 22.944-51.2 51.2v102.4c0 28.256 22.944 51.2 51.2 51.2zM824.928 192h102.4c28.256 0 51.2-22.944 51.2-51.2v-102.4c0-28.256-22.944-51.2-51.2-51.2h-102.4c-28.256 0-51.2 22.944-51.2 51.2v102.4c0 28.256 22.944 51.2 51.2 51.2zM108.128 192h102.4c28.256 0 51.2-22.944 51.2-51.2v-102.4c0-28.256-22.944-51.2-51.2-51.2h-102.4c-28.256 0-51.2 22.944-51.2 51.2v102.4c0 28.256 22.944 51.2 51.2 51.2zM466.528 550.4h102.4c28.256 0 51.2-22.944 51.2-51.2v-102.4c0-28.256-22.944-51.2-51.2-51.2h-102.4c-28.256 0-51.2 22.944-51.2 51.2v102.4c0 28.256 22.944 51.2 51.2 51.2zM824.928 550.4h102.4c28.256 0 51.2-22.944 51.2-51.2v-102.4c0-28.256-22.944-51.2-51.2-51.2h-102.4c-28.256 0-51.2 22.944-51.2 51.2v102.4c0 28.256 22.944 51.2 51.2 51.2zM108.128 550.4h102.4c28.256 0 51.2-22.944 51.2-51.2v-102.4c0-28.256-22.944-51.2-51.2-51.2h-102.4c-28.256 0-51.2 22.944-51.2 51.2v102.4c0 28.256 22.944 51.2 51.2 51.2zM466.528 908.8h102.4c28.256 0 51.2-22.944 51.2-51.2v-102.4c0-28.256-22.944-51.2-51.2-51.2h-102.4c-28.256 0-51.2 22.944-51.2 51.2v102.4c0 28.256 22.944 51.2 51.2 51.2zM824.928 908.8h102.4c28.256 0 51.2-22.944 51.2-51.2v-102.4c0-28.256-22.944-51.2-51.2-51.2h-102.4c-28.256 0-51.2 22.944-51.2 51.2v102.4c0 28.256 22.944 51.2 51.2 51.2zM108.128 908.8h102.4c28.256 0 51.2-22.944 51.2-51.2v-102.4c0-28.256-22.944-51.2-51.2-51.2h-102.4c-28.256 0-51.2 22.944-51.2 51.2v102.4c0 28.256 22.944 51.2 51.2 51.2z" />
<glyph unicode="&#xe918;" glyph-name="close" d="M469.87 448l-455.826 455.826 42.13 42.13 455.826-455.826 455.826 455.826 42.13-42.13-455.826-455.826 455.826-455.826-42.13-42.13-455.826 455.826-455.826-455.826-42.13 42.13 455.826 455.826z" />
<glyph unicode="&#xe919;" glyph-name="dashboard" d="M562.722 72.533v109.227h327.748c60.348 0 109.227 48.879 109.227 109.227v546.133c0 60.348-48.879 109.227-109.227 109.227v0h-764.587c-60.348 0-109.227-48.879-109.227-109.227v-546.133c0-60.348 48.879-109.227 109.227-109.227h327.953v-109.227h-164.113c-30.14 0-54.613-24.474-54.613-54.613s24.474-54.613 54.613-54.613h436.907c30.14 0 54.613 24.474 54.613 54.613s-24.474 54.613-54.613 54.613h-163.908zM890.47 290.987h-764.587v546.133h764.587v-546.133z" />
<glyph unicode="&#xe91a;" glyph-name="down" d="M806.4 576l-44.8 44.8-256-256-256 256-51.2-44.8 281.6-275.2c6.4-6.4 12.8-12.8 25.6-12.8 6.4 0 19.2 6.4 25.6 6.4v0l275.2 281.6z" />
<glyph unicode="&#xe91b;" glyph-name="edit-time" d="M518.4 832c211.2 0 384-172.8 384-384s-172.8-384-384-384-384 172.8-384 384 166.4 384 384 384zM518.4 896c-249.6 0-448-198.4-448-448s198.4-448 448-448 448 198.4 448 448-204.8 448-448 448v0zM486.4 640c19.2 0 32-12.8 32-32v-192c0-19.2-19.2-32-32-32s-32 12.8-32 32v192c0 19.2 12.8 32 32 32zM486.4 448h192c19.2 0 32-12.8 32-32s-12.8-32-32-32h-192c-19.2 0-32 12.8-32 32s12.8 32 32 32z" />
<glyph unicode="&#xe91c;" glyph-name="edit2" d="M1014.647 813.841c13.38-13.38 13.38-35.157 0-48.538l-476.228-407.893c-13.38-13.38-35.157-13.38-48.538 0s-13.38 35.089 0 48.538l476.228 407.962c13.38 13.312 35.157 13.312 48.538-0.068v0zM736.256 72.533h85.333v238.933c0 18.842 15.292 34.133 34.133 34.133s34.133-15.292 34.133-34.133v-273.067c0-9.421-3.823-17.954-10.001-24.132s-14.711-10.001-24.132-10.001h-785.067c-37.683 0-68.267 30.583-68.267 68.267v750.933c0 37.683 30.583 68.267 68.267 68.267h716.8c18.842 0 34.133-15.292 34.133-34.133s-15.292-34.133-34.133-34.133h-716.8v-750.933h665.6z" />
<glyph unicode="&#xe91d;" glyph-name="error2" d="M512 960c-281.6 0-512-230.4-512-512s230.4-512 512-512 512 230.4 512 512c0 281.6-230.4 512-512 512zM563.2 204.8c0-19.2-16-35.2-35.2-35.2h-35.2c-19.2 0-35.2 16-35.2 35.2v35.2c0 19.2 16 35.2 35.2 35.2h35.2c19.2 0 35.2-16 35.2-35.2v-35.2zM563.2 374.4c0-19.2-16-35.2-35.2-35.2h-35.2c-19.2 0-35.2 16-35.2 35.2l-16 294.4c0 19.2 16 35.2 35.2 35.2h70.4c19.2 0 35.2-16 35.2-35.2l-19.2-294.4z" />
<glyph unicode="&#xe91e;" glyph-name="info2" d="M512 960c-281.6 0-512-230.4-512-512s230.4-512 512-512 512 230.4 512 512c0 281.6-230.4 512-512 512v0zM592 259.2c-38.4-57.6-76.8-102.4-144-102.4-44.8 6.4-64 38.4-54.4 73.6l86.4 281.6c3.2 6.4 0 12.8-6.4 16s-19.2-6.4-28.8-16l-54.4-64c0 9.6 0 28.8 0 35.2 38.4 57.6 102.4 102.4 144 102.4 41.6-3.2 60.8-38.4 54.4-73.6l-86.4-281.6c0-6.4 3.2-12.8 9.6-16s19.2 6.4 28.8 19.2l51.2 60.8c3.2-9.6 0-28.8 0-35.2v0zM582.4 627.2c-32 0-57.6 22.4-57.6 57.6s25.6 57.6 57.6 57.6c32 0 57.6-22.4 57.6-57.6 0-32-25.6-57.6-57.6-57.6v0z" />
<glyph unicode="&#xe91f;" glyph-name="fav" d="M990.080 563.52c-3.776 12.032-14.016 20.544-26.048 21.632l-306.24 26.944-119.168 296.576c-4.672 11.648-15.552 19.2-27.648 19.2s-22.976-7.616-27.712-19.264l-119.168-296.512-306.24-26.944c-12.032-1.024-22.272-9.6-26.048-21.632-3.712-12.032-0.192-25.28 8.96-33.536l232.576-210.304-70.144-313.28c-2.752-12.352 1.792-25.152 11.584-32.64 5.248-3.968 11.456-6.016 17.664-6.016 5.376 0 10.752 1.536 15.552 4.544l262.976 166.592 262.848-166.592c10.304-6.592 23.424-5.952 33.216 1.472s14.336 20.288 11.584 32.64l-70.144 313.28 232.64 210.304c9.152 8.256 12.672 21.504 8.96 33.536zM678.528 341.44l59.072-269.44-226.688 143.36-228.288-145.28 60.352 272.896-204.608 185.408 269.632 24.64 102.912 254.016 101.376-254.016 271.744-25.024-205.504-186.56z" />
<glyph unicode="&#xe920;" glyph-name="give-up" d="M505.6 806.4c192 0 352-160 352-352s-160-352-352-352-352 160-352 352 160 352 352 352zM505.6 870.4c-230.4 0-416-185.6-416-416s185.6-416 416-416c230.4 0 416 185.6 416 416s-185.6 416-416 416v0zM224 736c-6.4-12.8-6.4-32 0-44.8l512-512c12.8-12.8 32-12.8 44.8 0s12.8 32 0 44.8l-512 512c-6.4 12.8-32 12.8-44.8 0z" />
<glyph unicode="&#xe921;" glyph-name="paper" horiz-adv-x="1055" d="M516.715 513.182l75.963 93.072h77.576l-120.709-147.895 164.151-274.117h-99.297l-122.129 203.943-166.453-203.943h-77.576l211.199 258.766-164.653 274.955h99.297l122.631-204.781zM735.418 866.909l198.594-198.594h-164.461c-18.618 0-34.133 15.515-34.133 34.133v164.461zM955.733 603.152v-549.236c0-12.412-9.309-21.721-21.721-21.721h-816.097c-12.412 0-21.721 9.309-21.721 21.721v816.097c0 12.412 9.309 21.721 21.721 21.721h552.339v-189.285c0-55.855 43.442-99.297 99.297-99.297h186.182zM735.418 960h-620.606c-46.545 0-86.885-40.339-86.885-89.988v-819.2c0-49.648 40.339-89.988 89.988-89.988h819.2c49.648 0 89.988 40.339 89.988 89.988v620.606l-291.685 288.582z" />
<glyph unicode="&#xe922;" glyph-name="logo" d="M961.6 643.2c-41.6 25.6-92.8 19.2-118.4-16-19.2-25.6-12.8-44.8-19.2-73.6-6.4-25.6-16-44.8-32-60.8s-38.4-19.2-57.6-9.6c-9.6 3.2-16 9.6-25.6 22.4s-25.6 22.4-51.2 22.4c-22.4 0-38.4-9.6-51.2-22.4-9.6-9.6-19.2-19.2-35.2-19.2s-25.6 9.6-35.2 19.2c-9.6 9.6-25.6 22.4-48 22.4s-38.4-9.6-51.2-22.4c-12.8-16-22.4-19.2-35.2-19.2-9.6 0-22.4 6.4-35.2 19.2-9.6 9.6-25.6 22.4-51.2 22.4-22.4 0-38.4-9.6-51.2-22.4-9.6-9.6-22.4-22.4-41.6-19.2-16 3.2-25.6 16-25.6 44.8-3.2 51.2 28.8 140.8 108.8 211.2 108.8 92.8 265.6 99.2 352 70.4 99.2-32 124.8-64 150.4-73.6 28.8-9.6 54.4 12.8 57.6 35.2s-3.2 41.6-48 76.8c-67.2 57.6-169.6 108.8-307.2 108.8-284.8 0-512-230.4-512-512s230.4-512 512-512c288 0 515.2 233.6 512 512 0 28.8-3.2 57.6-6.4 86.4-3.2 48-25.6 89.6-54.4 108.8z" />
<glyph unicode="&#xe923;" glyph-name="member" d="M780.2 94.5c0 156.3-93.2 292-226.8 354 49.6 44.4 80.5 109.1 80.5 182.3 0 136.6-107.3 243.8-243.8 243.8s-243.8-107.3-243.8-243.8c0-73.2 30.8-138 80.5-182.3-133.6-62.1-226.8-197.7-226.8-354h4.9c0-29.2 19.5-53.6 48.8-53.6s48.8 24.4 48.8 48.8v4.9c0 7.4-1.2 14.2-3.6 20.1 14.2 151.5 137.1 272.3 291.2 272.3 160.9 0 292.6-131.7 292.6-292.6v0c0-29.3 24.4-48.8 48.8-53.7 29.3 0 48.8 24.4 48.8 48.8l-0.1 5zM390.1 777.1c82.9 0 146.3-63.4 146.3-146.3s-63.4-146.2-146.3-146.2v0c-82.9 0-146.3 63.4-146.3 146.3s63.4 146.2 146.3 146.2zM704.5 866.7c101-28.4 173.4-118.6 178.1-235.8 0-73.4-32.6-137.2-84.6-180.6 133.6-62 226.1-194.5 226.1-350.9v0-4.9c0-24.4-19.5-48.8-48.8-48.8-24.4 4.9-48.7 29.2-48.8 53.6 0 137.7-95 262.3-224 292.8-1.7-0.2-3.4-0.3-5.1-0.3-26.9 0-48.8 21.8-48.8 48.8 0 24.5 18.1 44.8 41.7 48.2 50.6 30.5 94.8 86.4 94.8 146.8 0 68.3-53.7 126.8-117 141.4v1c-22.2 4.5-38.9 24.2-38.9 47.8 0 26.9 21.8 48.8 48.8 48.8 9.7 0 18.8-2.9 26.5-7.9v0zM926.5 99.4v0z" />
<glyph unicode="&#xe924;" glyph-name="msg" d="M320 608c35.328 0 64-28.672 64-64s-28.672-64-64-64-64 28.672-64 64 28.672 64 64 64zM640 608c35.328 0 64-28.672 64-64s-28.672-64-64-64c-35.328 0-64 28.672-64 64s28.672 64 64 64zM768 864h-576c-106.048 0-192-85.952-192-192v-320c0-106.048 85.952-192 192-192h64.576v-128h38.272l144.64 128h328.512c106.048 0 192 85.952 192 192v320c0 106.048-85.952 192-192 192v0zM192 224c-70.72 0-128 57.28-128 128v320c0 70.72 57.28 128 128 128h576c70.72 0 128-57.28 128-128v-320c0-70.72-57.28-128-128-128h-353.024l-94.976-84.288v84.288h-128z" />
<glyph unicode="&#xe925;" glyph-name="performance-appraisal" d="M512 934.4c268.8 0 486.4-217.6 486.4-486.4s-217.6-486.4-486.4-486.4-486.4 220.8-486.4 489.6c0 265.6 217.6 483.2 486.4 483.2zM512 960c-281.6 0-512-227.2-512-508.8s230.4-512 512-512 512 230.4 512 512c0 281.6-230.4 508.8-512 508.8v0zM512 608c60.8 0 115.2-35.2 140.8-89.6 9.6-22.4 16-44.8 16-70.4 0-86.4-70.4-156.8-156.8-156.8s-156.8 70.4-156.8 156.8 70.4 160 156.8 160zM512 633.6c-102.4 0-182.4-83.2-182.4-182.4s83.2-182.4 182.4-182.4 182.4 83.2 182.4 182.4c0 28.8-6.4 54.4-19.2 80-28.8 60.8-89.6 102.4-163.2 102.4v0zM588.8 460.8h-76.8c-6.4 0-12.8-6.4-12.8-12.8s6.4-12.8 12.8-12.8h76.8c6.4 0 12.8 6.4 12.8 12.8-3.2 9.6-6.4 12.8-12.8 12.8v0zM512 537.6c-6.4 0-12.8-6.4-12.8-12.8v-76.8c0-6.4 6.4-12.8 12.8-12.8s12.8 6.4 12.8 12.8v76.8c0 6.4-6.4 12.8-12.8 12.8v0z" />
<glyph unicode="&#xe926;" glyph-name="no" d="M921.6 455.328c0-219.424-182.848-402.272-402.272-402.272s-402.272 182.848-402.272 402.272c0 219.424 182.848 402.272 402.272 402.272s402.272-182.848 402.272-402.272v0zM994.752 455.328c0 263.328-212.128 475.424-475.424 475.424s-475.424-212.128-475.424-475.424c0-263.328 212.128-475.424 475.424-475.424s475.424 212.128 475.424 475.424v0 0zM841.152 777.152c-14.624 7.328-36.576 7.328-51.2 0l-585.152-585.152c-14.624-14.624-14.624-36.576 0-51.2s36.576-14.624 51.2 0l585.152 585.152c14.624 7.328 14.624 36.576 0 51.2v0z" />
<glyph unicode="&#xe927;" glyph-name="notice" horiz-adv-x="864" d="M427.5-64c56.3 0 102.4 46.1 102.4 102.4h-204.8c0-56.3 46.1-102.4 102.4-102.4v0zM785.9 345.6v204.8c0 169-138.2 358.4-307.2 358.4v51.2h-102.4v-51.2c-169 0-307.2-189.4-307.2-358.4v-204.8l-51.2-204.8c0-30.7 20.5-51.2 51.2-51.2h716.8c30.7 0 51.2 20.5 51.2 51.2l-51.2 204.8zM135.7 197.1l30.7 128 5.1 10.2v215c0 117.8 92.2 256 204.8 256h102.4c112.6 0 204.8-138.2 204.8-256v-215l5.1-10.2 30.7-128h-583.6z" />
<glyph unicode="&#xe928;" glyph-name="out-employ" d="M395.476 868.193c77.683 0 141.241-63.559 141.241-141.241s-63.559-141.241-141.241-141.241c-77.683 0-141.241 63.559-141.241 141.241 0 84.745 63.559 141.241 141.241 141.241v0zM395.476 938.814c-120.055 0-211.862-91.807-211.862-211.862s91.807-211.862 211.862-211.862c120.055 0 211.862 91.807 211.862 211.862s-91.807 211.862-211.862 211.862v0 0zM677.959 444.469c120.055 0 211.862-91.807 211.862-211.862s-91.807-211.862-211.862-211.862c-120.055 0-211.862 91.807-211.862 211.862s91.807 211.862 211.862 211.862v0zM677.959 515.090c-155.366 0-282.483-127.117-282.483-282.483s127.117-282.483 282.483-282.483c155.366 0 282.483 127.117 282.483 282.483 0 162.428-127.117 282.483-282.483 282.483v0 0zM724.589 232.708l94.611-91.908-35.31-49.434-102.4 99.474-102.4-99.474-35.31 49.434 94.611 91.908-101.673 98.768 35.31 49.434 109.462-106.335 109.462 106.335 35.31-49.434-101.673-98.768zM430.786 91.366h-70.621c-240.11 0-240.11 49.434-240.11 141.241 0 70.621 98.869 141.241 254.234 141.241h49.434c14.124 21.186 28.248 42.372 49.434 63.559-28.248 0-63.559 7.062-98.869 7.062-190.676 0-324.855-98.869-324.855-211.862s0-211.862 310.731-211.862h21.186c35.31 0 70.621 0 98.869 7.062-21.186 21.186-35.31 42.372-49.434 63.559v0z" />
<glyph unicode="&#xe929;" glyph-name="position" d="M716.8 448h102.4v-204.8h-102.4v204.8zM409.6 396.8h204.8v-102.4h-204.8v102.4zM204.8 448h102.4v-204.8h-102.4v204.8zM358.4 857.6h308.032v-153.6h101.568v153.6c0 56.576-45.888 102.4-102.4 102.4h-307.2c-56.576 0-102.4-45.824-102.4-102.4v-153.6h102.4v153.6zM921.6 704h-819.2c-56.512 0-102.4-45.824-102.4-102.4v-563.2c0-56.576 45.888-102.4 102.4-102.4h819.2c56.512 0 102.4 45.824 102.4 102.4v563.2c0 56.576-45.888 102.4-102.4 102.4zM921.6 38.4h-819.2v563.2h819.2v-563.2z" />
<glyph unicode="&#xe92a;" glyph-name="modules-manage" d="M512 934.4c268.8 0 486.4-217.6 486.4-486.4s-217.6-486.4-486.4-486.4-486.4 220.8-486.4 486.4 217.6 486.4 486.4 486.4zM512 960c-281.6 0-512-230.4-512-512s230.4-512 512-512 512 230.4 512 512c0 281.6-230.4 512-512 512v0zM684.8 444.8c-57.6-28.8-115.2-57.6-172.8-86.4-3.2 0-3.2 0-3.2 0-57.6 28.8-115.2 57.6-172.8 86.4 0 0 0 0-3.2 0-3.2-9.6-6.4-16-12.8-25.6 0 0 0 0 3.2 0 60.8-32 121.6-64 185.6-92.8 0 0 3.2 0 3.2 0 60.8 32 121.6 64 185.6 92.8 0 0 0 0 3.2 0-6.4 9.6-9.6 19.2-16 25.6 3.2 0 3.2 0 0 0v0 0zM684.8 377.6c-57.6-28.8-115.2-57.6-172.8-86.4-3.2 0-3.2 0-3.2 0-57.6 28.8-115.2 57.6-172.8 86.4 0 0 0 0-3.2 0-3.2-9.6-6.4-16-12.8-25.6 0 0 0 0 3.2 0 60.8-32 121.6-64 185.6-92.8 0 0 3.2 0 3.2 0 60.8 32 121.6 64 185.6 92.8 0 0 0 0 3.2 0-6.4 9.6-9.6 19.2-16 25.6 3.2 0 3.2 0 0 0v0 0zM515.2 588.8v0c6.4 0 9.6 0 12.8-3.2l140.8-80-140.8-80c-3.2 0-6.4-3.2-12.8-3.2s-9.6 0-12.8 3.2l-140.8 80 140.8 80c3.2 3.2 6.4 3.2 12.8 3.2zM515.2 614.4c-9.6 0-16-3.2-25.6-6.4l-156.8-89.6c-12.8-6.4-12.8-19.2 0-28.8l156.8-89.6c6.4-3.2 16-6.4 25.6-6.4s16 3.2 25.6 6.4l156.8 89.6c12.8 6.4 12.8 19.2 0 28.8l-156.8 89.6c-9.6 6.4-16 6.4-25.6 6.4v0z" />
<glyph unicode="&#xe92b;" glyph-name="resume-lib" d="M947.2 960h-870.4c-28.256 0-51.2-22.944-51.2-51.2v-921.6c0-28.256 22.944-51.2 51.2-51.2h870.4c28.256 0 51.2 22.944 51.2 51.2v921.6c0 28.256-22.944 51.2-51.2 51.2zM896 38.4h-768v819.2h768v-819.2zM793.6 652.8c0-21.184-17.216-38.4-38.4-38.4h-486.4c-21.184 0-38.4 17.216-38.4 38.4v0c0 21.184 17.216 38.4 38.4 38.4h486.4c21.184 0 38.4-17.216 38.4-38.4v0zM793.6 448.608c0-21.184-17.216-38.4-38.4-38.4h-486.4c-21.184 0-38.4 17.216-38.4 38.4v0c0 21.184 17.216 38.4 38.4 38.4h486.4c21.184 0 38.4-17.152 38.4-38.4v0zM793.6 242.624c0-21.184-17.216-38.4-38.4-38.4h-486.4c-21.184 0-38.4 17.216-38.4 38.4v0c0 21.184 17.216 38.4 38.4 38.4h486.4c21.184 0 38.4-17.216 38.4-38.4v0z" />
<glyph unicode="&#xe92c;" glyph-name="search" d="M445.184 847.36c-183.744 0-332.704-149.152-332.704-333.12s148.928-333.12 332.704-333.12c183.744 0 332.704 149.152 332.704 333.12-0.064 183.968-148.992 333.12-332.704 333.12zM445.024 232.512c-155.232 0-281.088 126.112-281.088 281.696s125.856 281.696 281.088 281.696c155.232 0 281.088-126.112 281.088-281.696 0-155.552-125.856-281.696-281.088-281.696zM682.56 278.336c9.312 9.536 24.48 9.568 33.856 0.16l206.912-207.872c9.376-9.408 9.472-24.768 0.16-34.304s-24.48-9.568-33.856-0.16l-206.912 207.872c-9.376 9.408-9.408 24.768-0.16 34.304z" />
<glyph unicode="&#xe92d;" glyph-name="send" d="M857.6 787.2l-76.8-25.6-371.2-313.6 44.8-44.8 384 326.4zM352 243.2v160l-64 32v-256c0 0 0 0 0 0 0-6.4 0-6.4 0-12.8s6.4-12.8 12.8-12.8 19.2-12.8 32-6.4c6.4 0 6.4 6.4 12.8 6.4l128 102.4-32 51.2-89.6-64zM896 870.4l-832-268.8c-25.6-6.4-32-44.8 0-57.6l224-108.8 102.4-51.2 44.8-76.8 38.4-51.2 160-249.6c12.8-25.6 51.2-19.2 57.6 6.4l249.6 812.8c6.4 25.6-19.2 51.2-44.8 44.8zM646.4 102.4l-192 300.8-44.8 44.8-249.6 115.2 620.8 198.4 76.8 25.6-19.2-57.6-192-627.2z" />
<glyph unicode="&#xe92e;" glyph-name="setting" d="M670.72 857.6v0l87.040-51.2-15.36-25.6-35.84-61.44 40.96-56.32c15.36-20.48 30.72-46.080 40.96-71.68l25.6-61.44h107.52v-102.4h-97.28l-25.6-66.56c-10.24-25.6-25.6-51.2-40.96-71.68l-40.96-56.32 35.84-61.44 15.36-25.6-87.040-51.2-15.36 25.6-35.84 61.44-66.56-10.24c-15.36 0-30.72-5.12-40.96-5.12s-25.6 0-40.96 5.12l-66.56 10.24-35.84-61.44-15.36-25.6-87.040 51.2 15.36 25.6 35.84 61.44-40.96 56.32c-15.36 20.48-30.72 46.080-40.96 71.68l-25.6 66.56h-117.76v102.4h97.28l25.6 61.44c10.24 25.6 25.6 51.2 40.96 71.68l40.96 56.32-30.72 61.44-15.36 25.6 87.040 51.2 15.36-25.6 35.84-61.44 66.56 10.24c15.36 0 30.72 5.12 40.96 5.12s25.6 0 40.96-5.12l66.56-10.24 35.84 61.44 20.48 25.6c0 0 0 0 0 0zM670.72 960c-35.84 0-71.68-20.48-87.040-51.2l-15.36-25.6c-20.48 5.12-35.84 5.12-56.32 5.12s-35.84 0-56.32-5.12l-15.36 25.6c-20.48 30.72-51.2 51.2-87.040 51.2-15.36 0-35.84-5.12-51.2-15.36l-87.040-51.2c-51.2-25.6-71.68-87.040-40.96-138.24l15.36-25.6c-25.6-30.72-40.96-61.44-56.32-97.28h-30.72c-56.32 0-102.4-46.080-102.4-102.4v-102.4c0-56.32 46.080-102.4 102.4-102.4h30.72c15.36-35.84 35.84-66.56 56.32-97.28l-15.36-25.6c-30.72-51.2-10.24-112.64 35.84-138.24l87.040-51.2c15.36-10.24 35.84-15.36 51.2-15.36 35.84 0 71.68 20.48 87.040 51.2l15.36 25.6c20.48-5.12 35.84-5.12 56.32-5.12s35.84 0 56.32 5.12l15.36-25.6c20.48-30.72 51.2-51.2 87.040-51.2 15.36 0 35.84 5.12 51.2 15.36l87.040 51.2c51.2 30.72 66.56 92.16 35.84 138.24l-15.36 25.6c25.6 30.72 40.96 61.44 56.32 97.28h40.96c56.32 0 102.4 46.080 102.4 102.4v102.4c0 56.32-46.080 102.4-102.4 102.4h-30.72c-15.36 35.84-35.84 66.56-56.32 97.28l15.36 25.6c30.72 51.2 10.24 112.64-35.84 138.24l-87.040 51.2c-20.48 10.24-35.84 15.36-56.32 15.36v0zM512 581.12c56.32 0 102.4-46.080 102.4-102.4s-46.080-102.4-102.4-102.4-102.4 46.080-102.4 102.4c0 56.32 46.080 102.4 102.4 102.4zM512 683.52c-112.64 0-204.8-92.16-204.8-204.8s92.16-204.8 204.8-204.8 204.8 92.16 204.8 204.8c0 112.64-92.16 204.8-204.8 204.8v0z" />
<glyph unicode="&#xe92f;" glyph-name="share-resume" d="M1023.36 414.123l-421.717 421.717v-253.013c0 0-511.531-33.963-601.643-501.376 0 0 187.947 243.072 601.643 206.165v-253.013l421.717 379.52zM89.216 214.656c157.184 322.645 554.539 329.984 554.539 329.984v188.032l317.269-316.672-315.989-285.909-0.256 196.779c-344.661 41.387-555.563-112.213-555.563-112.213z" />
<glyph unicode="&#xe930;" glyph-name="share-to-position" d="M921.6 588.8l-268.8 57.6-128 243.2c-12.8 25.6-44.8 25.6-57.6 0l-108.8-243.2-268.8-57.6c-25.6-6.4-32-38.4-19.2-51.2l185.6-211.2-38.4-281.6c-6.4-25.6 25.6-44.8 44.8-32l243.2 121.6 243.2-121.6c25.6-12.8 51.2 6.4 44.8 32l-38.4 281.6 179.2 204.8c19.2 25.6 12.8 51.2-12.8 57.6zM697.6 364.8l-6.4-25.6 32-236.8-204.8 102.4h-32l-204.8-102.4 38.4 230.4-6.4 25.6-160 179.2 230.4 44.8 19.2 19.2 96 204.8 102.4-204.8 19.2-19.2 224-44.8-147.2-172.8z" />
<glyph unicode="&#xe931;" glyph-name="talent" d="M819.968 583.488v0c-28.32 0-51.2-22.944-51.2-51.2s22.944-51.2 51.2-51.2h153.6c28.256 0 51.2 22.944 51.2 51.2s-22.944 51.2-51.2 51.2h-153.6zM819.968 788.288v0c-28.32 0-51.2-22.944-51.2-51.2s22.944-51.2 51.2-51.2h153.6c28.256 0 51.2 22.944 51.2 51.2s-22.944 51.2-51.2 51.2h-153.6zM717.823 71.936l0.321-3.232c0-26.912 22.944-48.736 51.2-48.736 28.32 0 51.264 21.792 51.264 48.736l-0.321 3.232h0.225c-0.305 165.244-98.691 307.518-240.144 371.816 52.754 46.785 86 115.027 86 191.032 0 141.056-114.528 255.424-255.808 255.424v0c-141.248 0-255.808-114.368-255.808-255.424 0-76.077 33.315-144.391 86.173-191.186-138.659-63.181-235.853-201.318-239.688-362.527-0.435-2.557-0.661-5.181-0.661-7.855l0.448-4.512c0-26.912 23.008-48.736 51.264-48.736s51.2 21.792 51.2 48.736l-0.321 3.232h0.609c0.352 169.472 137.568 306.784 306.784 306.784s306.432-137.312 306.784-306.784h0.479zM871.168 378.688h102.4c28.256 0 51.2-22.944 51.2-51.2s-22.944-51.2-51.2-51.2h-102.4c-28.256 0-51.2 22.944-51.2 51.2s22.88 51.2 51.2 51.2zM410.624 480.512c-84.736 0-153.408 68.96-153.408 154.112 0 85.088 68.672 154.112 153.408 154.112 84.672 0 153.408-68.96 153.408-154.112-0.064-85.152-68.704-154.112-153.408-154.112v0z" />
<glyph unicode="&#xe932;" glyph-name="yes" d="M962.926 850.286c-289.28-173.934-499.127-393.289-593.408-503.369l-230.985 177.371-101.961-80.603 399.067-397.97c68.681 172.471 286.208 509.659 551.79 749.202l-24.503 55.369z" />
<glyph unicode="&#xe933;" glyph-name="chat" d="M421.28 498.112c0-34.752-28.16-62.912-62.912-62.912s-62.912 28.16-62.912 62.912c0 34.752 28.16 62.912 62.912 62.912s62.912-28.16 62.912-62.912zM756.224 498.112c0-34.752-28.16-62.912-62.912-62.912s-62.912 28.16-62.912 62.912c0 34.752 28.16 62.912 62.912 62.912s62.912-28.16 62.912-62.912zM511.488 960c-282.784 0-512-206.272-512-460.8 0-129.184 59.2-245.696 154.304-329.376v-233.824l303.168 105.056c17.92-1.696 36.096-2.656 54.528-2.656 282.784 0 512 206.272 512 460.8s-229.216 460.8-512 460.8zM511.488 140.288c-23.232 0-45.92 2.112-68.16 5.376 0.16-0.16 0.448-0.448 0.448-0.448l-187.808-65.216v138.56c0.096 0.064 0.192 0.064 0.32 0.096-94.016 65.696-154.432 166.592-154.432 280.064 0 197.952 183.392 358.4 409.6 358.4s409.6-160.448 409.6-358.4-183.392-358.4-409.6-358.4z" />
<glyph unicode="&#xe934;" glyph-name="checkbox" d="M931.863 960h-839.818c-50.809 0-92.045-41.236-92.045-92.045v-839.908c0-50.809 41.236-92.045 92.045-92.045h839.908c50.809 0 92.045 41.236 92.045 92.045v839.908c-0.089 50.901-41.236 92.045-92.137 92.045v0zM92.711-17.455c-25.496 0-46.164 21.192-46.164 46.164v838.581c0 25.496 21.192 46.164 46.164 46.164h838.581c25.496 0 46.164-21.192 46.164-46.164v-838.581c0-25.496-21.192-46.164-46.164-46.164h-838.581z" />
<glyph unicode="&#xe935;" glyph-name="checkedbox" d="M866.456 960h-708.924c-87.040 0-157.544-70.504-157.544-157.544v-708.924c0-86.964 70.504-157.544 157.544-157.544h708.924c87.040 0 157.544 70.58 157.544 157.544v708.924c0 87.040-70.504 157.544-157.544 157.544zM852.524 572.296l-386.048-386.048c-9.14-9.216-21.264-12.996-33.236-12.288-11.972-0.708-24.108 3.072-33.236 12.212l-149.744 149.82c-17.016 16.94-17.016 44.5 0 61.44 16.94 16.94 44.5 16.94 61.44 0l121.54-121.54 357.844 357.844c16.94 16.94 44.5 16.94 61.44 0 17.016-16.94 17.016-44.5 0-61.44z" />
<glyph unicode="&#xe936;" glyph-name="handcase" horiz-adv-x="989" d="M775.98 743.053h113.841c54.59 0 98.869-46.327 98.869-103.459v-569.062c0-57.132-44.279-103.459-98.869-103.459h-790.952c-54.59 0-98.869 46.327-98.869 103.459v569.062c0 57.132 44.279 103.459 98.869 103.459h113.911v111.51c0 55.861 50.423 101.199 112.64 101.199h337.849c62.217 0 112.64-45.338 112.711-101.199v-111.51zM264.275 672.503h-192.878v-634.598h846.742v634.598h-193.655c-5.71-0.37-11.776-0.494-18.137-0.494-10.342 0-21.412 0.343-33.010 0.494h-357.916c-11.598-0.152-22.668-0.494-33.010-0.494-6.36 0-12.427 0.125-18.137 0.494zM283.966 743.053h421.535v142.301h-421.535v-142.301zM706.842 461.912h70.903v-213.133h-70.903v213.133zM352.68 390.656h283.33v-70.55h-283.33v70.55zM210.944 461.912h70.903v-213.133h-70.903v213.133z" />
<glyph unicode="&#xe937;" glyph-name="help-center" d="M512 960c-282.784 0-512-229.216-512-512s229.216-512 512-512c282.784 0 512 229.216 512 512s-229.216 512-512 512zM512 38.4c-226.208 0-409.6 183.392-409.6 409.6s183.392 409.6 409.6 409.6c226.208 0 409.6-183.392 409.6-409.6s-183.392-409.6-409.6-409.6zM464.064 292.96v-77.152h81.664v77.152h-81.664zM542.976 339.712c-1.12 10.688-1.696 19.712-1.696 28.736 0 29.856 8.448 43.36 43.936 67.008 46.176 31.552 56.32 40 69.28 57.44 13.504 18.592 19.712 39.424 19.712 66.464 0 66.464-62.528 112.64-153.248 112.64-52.928 0-95.744-13.504-124.48-39.424-24.224-21.92-35.488-43.328-44.48-84.416l83.36-10.144c2.24 21.408 5.632 30.976 13.504 42.24 13.504 20.288 37.792 32.096 67.072 32.096 48.448 0 78.272-21.408 78.272-55.744 0-25.344-13.504-43.36-49.568-67.584-36.608-23.648-41.12-27.584-52.928-42.24-15.776-19.712-23.104-42.816-23.104-72.64l0.576-10.688c0-7.328-0.576-14.080-1.696-23.648h75.456l0.032-0.096z" />
<glyph unicode="&#xe938;" glyph-name="knock-out" d="M409.6 875.255c77.683 0 141.241-63.559 141.241-141.241s-63.559-141.241-141.241-141.241c-77.683 0-141.241 63.559-141.241 141.241s63.559 141.241 141.241 141.241v0zM409.6 952.938c-120.055 0-211.862-91.807-211.862-211.862s91.807-211.862 211.862-211.862c120.055 0 211.862 91.807 211.862 211.862s-98.869 211.862-211.862 211.862v0 0zM825.51 358.972c-27.906 18.382-61.564 29-98.117 29-98.869 0-176.552-77.683-176.552-176.552 0-36.553 10.618-70.211 29-98.117l245.669 245.669zM869.122 317.839l-248.147-248.147c29.418-21.944 66.162-34.823 106.419-34.823 98.869 0 176.552 77.683 176.552 176.552 0 40.257-12.879 77.001-34.823 106.419zM526.994 354.217c-35.113 19.978-83.489 26.694-138.581 26.694h-7.062c-155.366 0-254.234-70.621-254.234-141.241 0-91.807 0-141.241 240.11-141.241h21.186c49.434 0 84.745 7.062 105.931 7.062 14.124-28.248 28.248-42.372 42.372-63.559-35.31-7.062-84.745-14.124-148.303-14.124h-21.186c-310.731 0-310.731 98.869-310.731 211.862s134.179 211.862 324.855 211.862c84.745 0 148.303-14.124 197.738-42.372-2.101-2.101-4.359-4.359-6.726-6.749 42.718 34.966 96.884 56.184 155.029 56.184 134.179 0 247.172-105.931 247.172-247.172 0-134.179-112.993-247.172-247.172-247.172s-247.172 112.993-247.172 247.172c0 52.727 17.448 102.183 46.774 142.796z" />
<glyph unicode="&#xe939;" glyph-name="authority-manage" d="M512 934.4c268.8 0 486.4-217.6 486.4-486.4s-217.6-483.2-486.4-483.2-486.4 217.6-486.4 483.2 217.6 486.4 486.4 486.4zM512 960c-281.6 0-512-230.4-512-512s230.4-512 512-512c281.6 0 512 230.4 512 512s-230.4 512-512 512v0zM665.6 486.4c3.2 0 9.6-3.2 9.6-9.6v-185.6c0-3.2-3.2-9.6-9.6-9.6h-291.2c-3.2 0-9.6 3.2-9.6 9.6v185.6c0 3.2 3.2 9.6 9.6 9.6h291.2zM665.6 512h-291.2c-19.2 0-35.2-16-35.2-35.2v-185.6c0-19.2 16-35.2 35.2-35.2h291.2c19.2 0 35.2 16 35.2 35.2v185.6c0 19.2-16 35.2-35.2 35.2v0zM435.2 521.6c0 57.6 38.4 102.4 86.4 102.4s86.4-44.8 86.4-102.4c0-6.4 0-12.8-3.2-19.2h25.6c0 6.4 3.2 12.8 3.2 19.2 0 70.4-51.2 128-112 128s-112-57.6-112-128c0-6.4 0-12.8 3.2-19.2h25.6c-3.2 6.4-3.2 12.8-3.2 19.2z" />
<glyph unicode="&#xe93a;" glyph-name="re-interview" d="M486.4 550.4h64c19.2 0 32-12.8 32-32s-12.8-32-32-32h-64c-19.2 0-32 12.8-32 32s12.8 32 32 32zM294.4 550.4h64c19.2 0 32-12.8 32-32s-12.8-32-32-32h-64c-19.2 0-32 12.8-32 32s12.8 32 32 32zM678.4 550.4h64c19.2 0 32-12.8 32-32s-12.8-32-32-32h-64c-19.2 0-32 12.8-32 32s12.8 32 32 32zM294.4 422.4h64c19.2 0 32-12.8 32-32s-12.8-32-32-32h-64c-19.2 0-32 12.8-32 32s12.8 32 32 32zM486.4 422.4h64c19.2 0 32-12.8 32-32s-12.8-32-32-32h-64c-19.2 0-32 12.8-32 32s12.8 32 32 32zM678.4 422.4h64c19.2 0 32-12.8 32-32s-12.8-32-32-32h-64c-19.2 0-32 12.8-32 32s12.8 32 32 32zM294.4 294.4h64c19.2 0 32-12.8 32-32s-12.8-32-32-32h-64c-19.2 0-32 12.8-32 32s12.8 32 32 32zM486.4 294.4h64c19.2 0 32-12.8 32-32s-12.8-32-32-32h-64c-19.2 0-32 12.8-32 32s12.8 32 32 32zM294.4 870.4c19.2 0 32-12.8 32-32v-128c0-19.2-12.8-32-32-32s-32 19.2-32 32v128c0 19.2 12.8 32 32 32zM902.4 812.8h-64v-64h64v-640h-768v640h64v64h-64c-38.4 0-64-25.6-64-64v-640c0-38.4 25.6-64 64-64h768c38.4 0 64 25.6 64 64v640c0 32-25.6 64-64 64zM390.4 812.8h256v-64h-256v64zM742.4 870.4c19.2 0 32-12.8 32-32v-128c0-19.2-12.8-32-32-32s-32 12.8-32 32v128c0 19.2 12.8 32 32 32z" />
<glyph unicode="&#xe93b;" glyph-name="report" d="M640 678.4c28.256 0 51.2-22.944 51.2-51.2v-563.2c0-28.256-22.944-51.2-51.2-51.2s-51.2 22.944-51.2 51.2v563.2c0 28.256 22.944 51.2 51.2 51.2zM896 883.2c28.256 0 51.2-22.944 51.2-51.2v-768c0-28.256-22.944-51.2-51.2-51.2s-51.2 22.944-51.2 51.2v768c0 28.256 22.944 51.2 51.2 51.2zM384 780.8c28.256 0 51.2-22.944 51.2-51.2v-665.6c0-28.256-22.944-51.2-51.2-51.2s-51.2 22.944-51.2 51.2v665.6c0 28.256 22.944 51.2 51.2 51.2zM128 473.6c28.256 0 51.2-22.944 51.2-51.2v-358.4c0-28.256-22.944-51.2-51.2-51.2s-51.2 22.944-51.2 51.2v358.4c0 28.256 22.944 51.2 51.2 51.2z" />
<glyph unicode="&#xe93c;" glyph-name="download" d="M85.3 124.6h853.3c11.8 0 21.3-9.6 21.3-21.3s-9.6-21.3-21.3-21.3h-853.3c-11.8 0-21.3 9.6-21.3 21.3s9.6 21.3 21.3 21.3zM938.7 252.6c11.8 0 21.3-9.6 21.3-21.3v-128c0-11.8-9.6-21.3-21.3-21.3s-21.3 9.6-21.3 21.3v128c-0.1 11.7 9.5 21.3 21.3 21.3zM85.3 252.6c11.8 0 21.3-9.6 21.3-21.3v-128c0-11.8-9.6-21.3-21.3-21.3s-21.3 9.5-21.3 21.3v128c0 11.7 9.6 21.3 21.3 21.3zM782.1 545.4c-8.8 8.7-23 8.7-31.7 0l-217.1-216.9v542.8c0 11.8-9.6 21.3-21.3 21.3-11.8 0-21.3-9.6-21.3-21.3v-541.5l-214.6 214.6c-8.8 8.7-23 8.7-31.7 0s-8.7-23 0-31.7l249.8-249.8c0.7-1 1.6-2 2.5-2.9 4.3-4.3 9.9-6.4 15.5-6.5 5.6 0.1 11.2 2.3 15.5 6.5 0 0 0 0-0.1-0.1-4.3-4.3-9.9-6.4-15.5-6.5 5-0.1 10.1 1.5 14.2 4.8 2 1.7 3.6 3.8 4.9 6.3 0.1 0.2 0.3 0.5 0.4 0.7v0c-1.2-2.8-3-5.2-5.2-7.2 0.7 0.5 1.4 1.1 2 1.8l253.8 253.8c8.6 8.9 8.6 23.1-0.1 31.8z" />
<glyph unicode="&#xe93d;" glyph-name="print" d="M362.667 401.323h341.333v-42.667h-341.333v42.667zM362.667 230.656h213.333v-42.667h-213.333v42.667zM789.333 529.323h-554.667v42.667h554.667v-42.667zM832 699.989v213.333h-597.333v-213.333h-170.667v-426.667h170.667v-256h597.333v256h170.667v426.667h-170.667zM277.333 870.656h512v-170.667h-512v170.667zM960 315.989h-128v256h-42.667v-512h-512l-3.499 512h-39.168v-256h-128v341.333h853.333v-341.333z" />
<glyph unicode="&#xe93e;" glyph-name="service" d="M537.6 908.698c-240.333 0-435.2-182.221-435.2-406.938 0-125.696 60.928-237.875 156.723-312.576l-13.158-201.882 178.842 121.907c36.045-9.062 73.677-14.285 112.794-14.285 240.384 0 435.2 182.17 435.2 406.886s-194.816 406.886-435.2 406.886zM562.534 246.17h-62.054v56.781h62.054v-56.781zM605.491 459.674c-33.382-21.248-49.357-47.667-47.77-79.514 0-9.062 0-15.923 0-20.378h-50.074c0 7.526 0 15.104 0 22.682-1.587 42.342 19.098 77.926 62.054 106.701 49.306 31.795 71.578 65.843 66.816 102.195-6.349 43.878-35.021 68.147-85.914 72.653-65.28 3.021-104.192-28.006-116.941-93.082l-50.125 15.872c20.634 83.251 77.926 123.392 171.827 120.371 84.275-4.557 129.638-43.93 135.987-118.118 3.174-46.899-25.395-90.061-85.862-129.382z" />
<glyph unicode="&#xe93f;" glyph-name="newfeature" horiz-adv-x="736" d="M0 960h736v-1024h-736v1024zM59.52 316.32v-10.72h62.72v-13.92h-48.96v-63.36h46.88c-1.6-8.32-4.48-15.2-8.32-20.64-8.96 4.64-17.28 10.080-24.8 16.32l-8.8-6.080c7.84-6.72 16.48-12.64 25.76-17.76-10.24-7.36-26.56-11.84-48.8-13.6l4.96-10.56c25.44 2.88 43.84 8.96 55.040 18.56 23.84-10.88 51.84-17.12 84-18.4l2.88 11.040c-30.72 0.96-57.28 6.24-79.68 15.68 4.48 6.4 7.52 14.88 9.44 25.44h51.52v63.36h-49.6v13.92h62.88v10.72h-137.12zM172 238.4v16.96h-38.24v-5.6l-0.48-11.36h38.72zM121.76 238.4c0.32 3.68 0.48 7.52 0.48 11.36v5.6h-37.6v-16.96h37.12zM84.64 264.96h37.6v16.8h-37.6v-16.8zM133.76 281.76v-16.8h38.24v16.8h-38.24zM351.040 321.12c-15.52-6.72-32.96-10.4-52.32-10.72v-68.48c-0.8-24.32-5.92-43.36-15.36-57.12l8.16-8.64c11.52 16.32 17.6 38.24 18.4 65.76v19.040h23.68v-85.44h11.36v85.44h16.64v11.040h-51.68v29.12c17.28 0.96 32.8 4.32 46.88 9.76l-5.76 10.24zM217.76 308.8v-10.56h72.16v10.56h-30.24c-2.24 5.76-4.48 11.040-6.88 15.84l-11.84-1.92c2.72-4.16 5.12-8.8 7.36-13.92h-30.56zM216.16 272.48v-10.4h32.32v-17.92h-29.76v-10.56h29.76v-42.56c0-3.84-2.080-5.76-6.24-5.76-2.24 0-4.64 0.32-7.2 0.8l2.4-10.72h8.64c9.28 0 13.92 4.32 13.92 12.96v45.28h28.16v10.56h-28.16v17.92h30.88v10.4h-18.080c3.040 5.44 5.76 11.68 8.32 18.56l-10.4 3.52c-2.4-7.68-5.12-15.040-8.32-22.080h-17.6c-2.56 8.64-5.44 15.84-8.48 21.76l-10.24-3.68c3.2-5.6 6.080-11.68 8.48-18.080h-18.4zM229.92 224.96c-3.52-14.080-8.96-26.88-16.48-38.4l9.6-6.080c7.36 12 13.28 26.080 17.44 42.24l-10.56 2.24zM275.84 226.080l-9.6-2.56c4.48-9.6 8.16-19.52 11.2-29.6l9.6 3.68c-2.56 8.64-6.4 18.080-11.2 28.48zM499.040 316.32h-98.88v-139.68h11.52v12.32h75.68v-12.16h11.68v139.52zM411.68 200.16h75.68v48.16h-75.68v-48.16zM411.68 259.52h75.68v45.6h-75.68v-45.6zM602.080 323.040v-20.96h-62.56v-11.2h62.56v-24.64h-51.68v-11.040h115.52v11.040h-52v24.64h62.4v11.2h-62.4v20.96h-11.84zM550.56 235.84c-2.88-16-7.52-30.72-14.080-44.16l9.92-6.080c6.72 13.44 11.84 29.28 15.52 47.84l-11.36 2.4zM660.32 240l-10.72-3.52c7.36-13.28 14.24-28.64 20.48-46.080l10.56 4.64c-5.76 16-12.64 30.88-20.32 44.96zM630.24 179.36c6.4 0 11.2 1.6 14.080 4.64 3.36 3.52 5.6 13.6 6.88 29.92l-10.88 3.68c-0.64-13.12-2.080-21.12-4.32-23.68-1.6-2.24-4.16-3.36-7.84-3.36h-34.72c-5.12 0-7.52 2.88-7.52 8.32v42.080h-11.84v-44.32c0-11.52 5.12-17.28 15.68-17.28h40.48zM611.36 244.48l-10.88-3.68c5.44-9.28 10.24-20.16 14.72-32.32l10.56 4.64c-4.16 11.2-8.96 21.6-14.4 31.36zM368 48l-368-112h736l-368 112z" />
<glyph unicode="&#xe940;" glyph-name="check-more" d="M632.4 538.3c-116.367 0-210.7-94.333-210.7-210.7s94.333-210.7 210.7-210.7 210.7 94.333 210.7 210.7-94.333 210.7-210.7 210.7zM632.4 177.1c-83.136 0-150.5 67.364-150.5 150.5s67.364 150.5 150.5 150.5 150.5-67.364 150.5-150.5-67.364-150.5-150.5-150.5zM784.405 270.53c-13.425-9.632-11.98-26.849 3.311-38.528l174.339-105.169c15.291-11.679 38.528-13.364 52.013-3.732 13.425 9.632 11.98 26.849-3.311 38.588l-174.339 105.169c-15.291 11.619-38.588 13.304-52.013 3.672zM150.8 538.3h240.8c16.615 0 30.1-13.485 30.1-30.1s-13.485-30.1-30.1-30.1h-240.8c-16.615 0-30.1 13.485-30.1 30.1s13.485 30.1 30.1 30.1zM150.8 357.7h180.6c16.615 0 30.1-13.485 30.1-30.1s-13.485-30.1-30.1-30.1h-180.6c-16.615 0-30.1 13.485-30.1 30.1s13.485 30.1 30.1 30.1zM150.8 718.9h481.6c16.615 0 30.1-13.485 30.1-30.1s-13.485-30.1-30.1-30.1h-481.6c-16.615 0-30.1 13.485-30.1 30.1s13.485 30.1 30.1 30.1zM722.7-3.5h-602c-33.23 0-60.2 26.97-60.2 60.2v722.4c0 33.23 26.97 60.2 60.2 60.2h602c33.23 0 60.2-26.97 60.2-60.2v-150.5l60.2-15.050v165.55c0 66.521-53.879 120.4-120.4 120.4h-602c-66.461 0-120.4-53.879-120.4-120.4v-722.4c0-66.521 53.939-120.4 120.4-120.4h602c66.521 0 120.4 53.879 120.4 120.4h-60.2c0-33.23-26.97-60.2-60.2-60.2z" />
<glyph unicode="&#xe941;" glyph-name="silence" d="M273 579.8v0c0.1 140.4 97.7 260.5 239 260.5h27.3c48.4 0 91.9-14.1 128.9-37.2l47.2 44c-36.3 26.9-77.8 44.9-122.4 48.8v64.1h-128v-64.1c-143-12.3-256-167.5-256-307.7v-213.7l64 59.7v145.6zM936.4 959.4l-918.9-843.2 40.1-51.6 918.8 843.2zM848.1 339.9v0c0.1 2.8 0.9 5.2 0.9 8.1v240.2c0 34.2-7 69.3-19.3 103l-51.3-47.8c4-18.4 6.5-37.4 6.5-57.2v-253.1c0-7.9-1.7-14.5-2.4-21.9h1.4l16.6-14.8 42-169h-616.9l-58.8-54.8c7.6-5.1 16.3-8.8 26.2-8.8h196c15-73.3 70.2-127.7 136-127.7s120.9 54.4 136 127.7h204c26.5 0 48 21.5 48 48.1l-48 192.1c0 14.5-6.8 27.1-16.9 35.9zM525 0c-30.7 0-57.9 26.5-69.7 63.4h139.5c-11.9-36.9-39.1-63.4-69.8-63.4z" />
<glyph unicode="&#xe942;" glyph-name="search-talent" d="M460.5 166.5v0c0 123.3 86.6 227.8 207 266-34.1 21.6-71.3 38.6-110.8 50.2 65.2 40.7 108.5 113.1 108.5 195.7 0 127.3-103.1 230.5-230.2 230.5v0c-127.2 0-230.2-103.2-230.2-230.5 0-82.5 43.4-154.9 108.5-195.6-180.9-52.8-313-219.9-313-418 0-10.9 0.8-21.7 1.6-32.4 70.6-50.6 230.2-112.7 578.2-88.5-72.7 51.4-119.6 131.8-119.6 222.6zM1007.1-6.8l-84.6 64.8c31.2 35.9 50 82.8 50 134.1 0 113.1-91.7 204.8-204.8 204.8s-204.8-91.7-204.8-204.8 91.7-204.8 204.8-204.8c41.9 0 80.9 12.6 113.4 34.3l105.5-80.7c13.9-8.4 29.8-3.6 35.5 10.9s-1.1 33-15 41.4zM767.4 57.8c-73.7 0-133.4 59.8-133.4 133.4s59.8 133.4 133.4 133.4 133.4-59.8 133.4-133.4-59.7-133.4-133.4-133.4z" />
<glyph unicode="&#xe943;" glyph-name="star" d="M214.976-64.064c-6.656 0-13.248 2.176-18.816 6.4-10.432 7.936-15.296 21.632-12.352 34.816l74.816 334.144-248.128 224.32c-9.792 8.832-13.568 22.912-9.536 35.776 3.968 12.864 14.976 21.952 27.776 23.040l326.656 28.736 127.104 316.352c4.992 12.416 16.64 20.544 29.568 20.544v0c12.864 0 24.512-8.064 29.568-20.544l127.040-316.352 326.656-28.736c12.8-1.152 23.808-10.24 27.776-23.040 3.968-12.864 0.192-26.944-9.536-35.776l-248.128-224.32 74.816-334.144c2.944-13.184-1.92-26.88-12.352-34.816-10.432-7.872-24.384-8.576-35.392-1.6l-280.384 177.728-280.512-177.728c-5.184-3.2-10.944-4.8-16.64-4.8z" />
<glyph unicode="&#xe944;" glyph-name="report-resume" d="M921.6 12.8h-819.2c-29.867 0-55.467 17.067-68.267 38.4-12.8 25.6-12.8 55.467 0 81.067l409.6 708.267c12.8 25.6 42.667 38.4 68.267 38.4 29.867 0 55.467-17.067 68.267-38.4l409.6-708.267c12.8-25.6 12.8-55.467 0-81.067s-38.4-38.4-68.267-38.4zM512 819.2c-4.267 0-8.533 0-12.8-8.533l-409.6-708.267c-4.267-8.533 0-12.8 0-17.067s4.267-8.533 12.8-8.533h819.2c8.533 0 12.8 4.267 12.8 8.533s4.267 8.533 0 17.067l-409.6 708.267c-4.267 8.533-8.533 8.533-12.8 8.533zM512 315.733c-17.067 0-34.133 12.8-34.133 34.133v238.933c0 17.067 12.8 34.133 34.133 34.133s34.133-12.8 34.133-34.133v-243.2c-4.267-17.067-17.067-29.867-34.133-29.867zM512 187.733c-17.067 0-34.133 12.8-34.133 34.133v38.4c0 17.067 12.8 34.133 34.133 34.133s34.133-12.8 34.133-34.133v-38.4c-4.267-21.333-17.067-34.133-34.133-34.133z" />
<glyph unicode="&#xe945;" glyph-name="entry" d="M890.435 47.304h-756.869c-73.765 0-133.565 59.8-133.565 133.565v534.261c0 73.765 59.8 133.565 133.565 133.565h756.869c73.765 0 133.565-59.8 133.565-133.565v-534.261c0-73.765-59.8-133.565-133.565-133.565zM934.956 715.13c0 24.589-19.933 44.522-44.522 44.522h-756.869c-24.589 0-44.522-19.933-44.522-44.522v-534.261c0-24.589 19.933-44.522 44.522-44.522h756.869c24.589 0 44.522 19.933 44.522 44.522v534.261zM801.391 314.435h-133.565c-24.589 0-44.522 19.933-44.522 44.522s19.933 44.522 44.522 44.522h133.565c24.589 0 44.522-19.933 44.522-44.522s-19.933-44.522-44.522-44.522zM801.391 492.522h-133.565c-24.589 0-44.522 19.933-44.522 44.522s19.933 44.522 44.522 44.522h133.565c24.589 0 44.522-19.933 44.522-44.522s-19.933-44.522-44.522-44.522zM356.174 403.478c-73.765 0-133.565-59.8-133.565-133.565h-89.043c0.198 81.924 44.815 153.383 111.035 191.585-13.37 21.589-21.991 47.585-21.991 75.596 0 73.765 59.8 133.565 133.565 133.565s133.565-59.8 133.565-133.565c0-28.011-8.622-54.007-23.357-75.48 67.585-38.32 112.202-109.778 112.4-191.674l-89.043-0.028c0 73.765-59.8 133.565-133.565 133.565zM356.174 581.565c-24.589 0-44.522-19.933-44.522-44.522s19.933-44.522 44.522-44.522c24.589 0 44.522 19.933 44.522 44.522s-19.933 44.522-44.522 44.522z" />
<glyph unicode="&#xe946;" glyph-name="offer2" d="M418.909 29.092h-279.273c-77.118 0-139.636 62.518-139.636 139.636v651.636c0 77.118 62.518 139.636 139.636 139.636h512c77.118 0 139.636-62.518 139.636-139.636v-512c-4.093-23.877-22.668-42.452-46.209-46.498-25.402 1.486-45.348 21.432-46.875 46.357l-0.007 512.139c-3.859 23.993-22.552 42.686-46.225 46.502l-512.32 0.043c-22.82-6.114-40.432-23.725-46.441-46.089l-0.105-652.093c6.114-22.82 23.725-40.432 46.089-46.441l279.73-0.105c33.975-28.657 64.434-59.116 92.159-91.959l-92.159-1.132zM232.728 727.274h279.273c25.707 0 46.545-20.839 46.545-46.545s-20.839-46.545-46.545-46.545h-279.273c-25.707 0-46.545 20.839-46.545 46.545s20.839 46.545 46.545 46.545zM232.728 541.092h325.818c25.707 0 46.545-20.839 46.545-46.545s-20.839-46.545-46.545-46.545h-325.818c-25.707 0-46.545 20.839-46.545 46.545s20.839 46.545 46.545 46.545zM232.728 354.91h325.818c25.707 0 46.545-20.839 46.545-46.545s-20.839-46.545-46.545-46.545h-325.818c-25.707 0-46.545 20.839-46.545 46.545s20.839 46.545 46.545 46.545zM651.637 168.728l93.091-93.091 186.182 232.727c11.836 12.075 28.318 19.559 46.545 19.559s34.709-7.484 46.534-19.548l0.011-46.557-279.273-325.818-186.182 186.182s-7.866 108.45 93.091 46.545z" />
<glyph unicode="&#xe947;" glyph-name="success" d="M511.999-64c-282.77 0-511.994 229.236-511.994 512.005 0 282.76 229.225 511.995 511.994 511.995s511.996-229.235 511.996-511.995c0-282.768-229.226-512.005-511.996-512.005zM824.834 628.027l-16.455 16.455c-9.091 9.091-23.817 9.091-32.908 0l-341.292-334.212-125.292 131.123c-4.115 4.114-14.819 0.069-23.911-9.022l-16.455-16.457c-9.091-9.091-13.112-19.795-8.999-23.897l167.181-174.941c4.090-4.115 14.795-0.056 23.887 9.022l16.432 16.456c2.908 2.885 5.045 5.875 6.817 8.819l350.996 343.733c9.092 9.080 9.092 23.831-0.001 32.922z" />
<glyph unicode="&#xe948;" glyph-name="info3" d="M512 960c282.773 0 512-229.227 512-512s-229.227-512-512-512c-282.773 0-512 229.227-512 512s229.227 512 512 512zM512 272.619c-42.821 0-77.538-34.707-77.538-77.538 0-42.821 34.717-77.538 77.538-77.538s77.538 34.717 77.538 77.538c0 42.831-34.717 77.538-77.538 77.538zM509.77 333.237c36.885 0 66.781 29.906 66.781 66.781v311.658c0 36.885-29.896 66.781-66.781 66.781s-66.781-29.906-66.781-66.781v-311.658c0-36.885 29.896-66.781 66.781-66.781z" />
<glyph unicode="&#xe949;" glyph-name="error" d="M983.709 647.313c-25.787 60.97-62.698 115.718-109.709 162.729-47.007 47.011-101.753 83.921-162.728 109.709-63.141 26.705-130.193 40.249-199.249 40.249-69.102 0-136.154-13.543-199.3-40.249-60.97-25.787-115.719-62.698-162.729-109.709-47.006-47.012-83.92-101.759-109.71-162.729-26.705-63.141-40.247-130.198-40.247-199.326 0-69.103 13.542-136.16 40.247-199.301 25.789-60.97 62.704-115.723 109.71-162.729 47.011-47.011 101.76-83.921 162.729-109.709 63.146-26.71 130.198-40.249 199.3-40.249 69.057 0 136.108 13.538 199.254 40.249 60.97 25.787 115.718 62.698 162.723 109.709 47.011 47.007 83.921 101.76 109.709 162.729 26.71 63.141 40.253 130.198 40.253 199.301-0.004 69.128-13.542 136.18-40.253 199.326zM723.445 231.345c-0.009-0.011-0.014-0.016-0.026-0.027-14.214-14.215-37.264-14.23-51.494-0.021l-164.358 164.047-164.047-164.358c-0.009-0.010-0.020-0.021-0.026-0.026-14.214-14.216-37.259-14.23-51.494-0.027-14.256 14.23-14.277 37.294-0.069 51.536l164.046 164.359-164.357 164.050c-14.24 14.214-14.261 37.28-0.047 51.514 0.005 0.010 0.014 0.021 0.026 0.027 14.194 14.198 37.239 14.209 51.473 0.005l164.358-164.047 164.073 164.386c14.215 14.214 37.264 14.229 51.514 0.004 14.24-14.214 14.261-37.279 0.047-51.519l-164.051-164.357 164.364-164.047c14.233-14.215 14.261-37.279 0.067-51.499z" />
<glyph unicode="&#xe94a;" glyph-name="warning" horiz-adv-x="1025" d="M604.438 653.009l-35.060-284.992h-0.116c-4.839-27.243-28.522-47.995-57.161-47.995-28.615 0-52.299 20.752-57.115 47.995h-0.14l-35.292 284.992h0.675c-0.489 3.862-1.186 7.654-1.186 11.632 0 51.415 41.667 93.059 93.059 93.059 51.415 0 93.059-41.644 93.059-93.059 0-3.978-0.675-7.77-1.163-11.632h0.442zM512.101 126.624c-38.526 0-69.794 31.244-69.794 69.794s31.268 69.794 69.794 69.794c38.549 0 69.794-31.244 69.794-69.794s-31.244-69.794-69.794-69.794v0zM511.985 959.986c-282.293 0-511.985-229.692-511.985-512.008 0-282.293 229.692-511.985 511.985-511.985 282.316 0 512.008 229.692 512.008 511.985 0 282.316-229.692 512.008-512.008 512.008v0z" />
<glyph unicode="&#xe94b;" glyph-name="yun-logo" horiz-adv-x="3849" d="M1276.477 663.119v85.336h88.892v103.115h101.336v-103.115h78.225v-85.336h-78.225v-176.006l74.67 24.89 1.778-76.447c-12.445-5.334-69.336-28.445-76.447-30.223v-218.675c0-71.114-35.556-115.56-106.67-115.56h-74.67v81.781h35.556c26.668 0 42.668 17.778 42.668 37.335v186.673c-28.445-7.111-53.336-12.445-88.892-17.778v92.448c37.335 5.334 62.224 8.89 88.892 14.223v197.34h-87.114zM1536.041 71.099v81.781h160.006c-44.446 126.227-56.891 273.788-71.114 456.905l110.226-1.778c7.111-167.117 14.223-307.566 53.336-456.905h76.447c42.668 144.005 56.891 289.787 67.558 456.905l110.226-1.778c-16.001-181.34-39.112-327.122-87.114-456.905h145.782v-81.781h-565.352v3.556zM1585.821 663.119v85.336h188.451v104.893h117.337v-104.893h186.673v-85.336h-492.461zM2183.174 536.892v78.225c88.892 56.891 151.116 122.671 179.562 243.564h110.226c-8.89-33.779-24.89-76.447-37.335-103.115h506.684l-5.334-568.909c0-81.781-40.89-128.004-124.449-128.004h-129.782v78.225h83.558c32.001 0 55.113 21.334 55.113 56.891 0 26.668 3.556 476.461 3.556 476.461h-433.793c-55.113-65.78-117.337-103.115-208.008-133.338zM2204.509 232.882l-7.111 96.003c78.225 80.002 163.562 147.561 225.786 266.676h113.782c-53.336-129.782-161.783-216.896-232.897-272.009 65.78 1.778 209.785 10.667 304.010 23.112-7.111 30.223-28.445 94.225-32.001 108.449l81.781 12.445c37.335-87.114 69.336-172.45 90.669-263.121l-101.336-10.667-21.334 78.225c-99.559-17.778-224.008-28.445-337.789-37.335l-83.558-1.778zM3050.76 567.116h798.25v-83.558l-391.125-1.778c-32.001-81.781-163.562-240.008-238.23-293.343 170.673 0 309.344 16.001 451.571 32.001-14.223 44.446-23.112 85.336-46.223 145.782l76.447 19.557c33.779-58.669 85.336-186.673 122.671-314.678l-104.893-10.667c-3.556 23.112-14.223 53.336-21.334 76.447-334.234-42.668-592.020-44.446-592.020-44.446v97.781c76.447 67.558 193.784 222.23 225.786 293.343h-277.343v83.558h-3.556zM3134.319 800.013h624.022v-83.558h-624.022v83.558zM945.798 640.007c-40.89 26.668-90.669 19.557-115.56-14.223-19.557-26.668-12.445-44.446-17.778-71.114s-16.001-42.668-32.001-58.669c-14.223-14.223-37.335-17.778-56.891-8.89-8.89 3.556-16.001 10.667-26.668 23.112-8.89 12.445-26.668 23.112-49.779 23.112-21.334 0-39.112-10.667-49.779-23.112-8.89-10.667-19.557-19.557-33.779-19.557s-24.89 8.89-33.779 19.557c-8.89 10.667-26.668 21.334-48.002 21.334s-39.112-10.667-49.779-23.112c-12.445-14.223-21.334-19.557-33.779-19.557-10.667 0-21.334 5.334-33.779 19.557-8.89 10.667-26.668 23.112-49.779 23.112-21.334 0-39.112-8.89-49.779-23.112-8.89-10.667-23.112-23.112-40.89-17.778-14.223 3.556-24.89 16.001-26.668 42.668-1.778 51.557 28.445 138.671 108.449 206.229 106.67 92.448 259.565 97.781 346.679 69.336 96.003-32.001 122.671-62.224 149.338-71.114 28.445-8.89 53.336 12.445 55.113 33.779s-1.778 40.89-46.223 74.67c-72.891 55.113-172.45 104.893-307.566 104.893-279.121 0-503.128-225.786-503.128-503.128s225.786-503.128 503.128-503.128c282.676 0 504.906 231.119 503.128 503.128 0 28.445-3.556 56.891-7.111 83.558-1.778 48.002-23.112 88.892-53.336 108.449z" />
<glyph unicode="&#xe94c;" glyph-name="portal-jz" d="M38.642-54.339h-38.642v1004.679h637.585v-173.887h-425.057v-251.17h579.623v135.245h231.849v-714.868h-985.358zM985.359 621.888h-154.566v-251.17h-38.642v115.925h-173.887v-115.925h-38.642v115.925h-173.887v-115.925h-38.642v115.925h-154.566v-115.925h-38.642v444.377h425.057v96.604h-560.302v-927.396h946.717v637.585z" />
<glyph unicode="&#xe94d;" glyph-name="portal-yun" d="M879.436 171.4c-125.156 0.964-746.918 0-746.918 0s-102.749-0.651-132.518 84.329h156.612v469.835h734.871v-469.835h132.518s-19.408-85.293-144.565-84.329zM867.389 701.47h-686.682v-445.741h686.682v445.741zM48.189 231.635c9.445-30.286 84.329-36.141 84.329-36.141h758.965c66.029 0.662 84.329 36.141 84.329 36.141h-927.624zM807.154 665.329h24.094v-373.459h-614.4v373.459h590.306zM240.942 315.964h566.212v325.271h-566.212v-325.271z" />
<glyph unicode="&#xe94e;" glyph-name="portal-hr" d="M856.419-64h-726.074v856.395h167.556v74.469h112.635c4.625 52.372 48.285 93.136 101.464 93.136s96.839-40.764 101.437-92.748l112.662-0.387v-74.469h167.556v-856.395h-37.235zM688.863 829.63h-111.704v37.235h-0.931c-4.531 31.777-31.558 55.939-64.23 55.939s-59.699-24.162-64.19-55.594l-0.971-0.345v-37.235h-111.704v-93.086h353.729v93.086zM856.419 755.161h-130.321v-55.852h-428.198v55.852h-130.321v-781.926h688.84v781.926zM297.9 438.667c0 0.095 0 0.205 0 0.316 0 51.41 41.676 93.086 93.086 93.086s93.086-41.676 93.086-93.086c0-36.906-21.477-68.795-52.616-83.852 25.379-12.623 63.19-36.564 69.129-65.402h2.104v-111.704h-223.407v111.704h2.122c5.94 28.839 43.751 52.779 69.684 65.161-31.646 15.203-53.119 46.974-53.19 83.769zM350.309 308.346h-15.174l-18.617-93.086h148.938l-18.617 93.086h-15.174c-9.914 11.425-24.457 18.608-40.678 18.608s-30.764-7.183-40.622-18.543zM390.987 382.815c30.846 0 55.852 25.006 55.852 55.852s-25.006 55.852-55.852 55.852c-30.846 0-55.852-25.006-55.852-55.852s25.006-55.852 55.852-55.852zM726.098 457.284h-167.556v37.235h167.556v-37.235zM726.098 326.963h-167.556v37.235h167.556v-37.235zM726.098 196.642h-167.556v37.235h167.556v-37.235z" />
<glyph unicode="&#xe94f;" glyph-name="portal-zizhu" d="M1008.009 130.514h-5.739l1.674-4.415-482.22-179.829v-10.271h-38.903v9.726l-462.768 160.922 1.674 4.415h-5.739v641.896h11.378l-7.294 19.355 499.473 186.266 0.545 1.421 1.634-0.623 1.674 0.623 0.564-1.497 479.711-186.091h4.339v-641.896zM521.724-12.22l447.382 166.855v561.952l-447.382-160.63v-568.175zM54.891 135.611l427.931-148.803v555.182l-1.653-0.583-3.89 10.328-235.81 91.422-13.168-4.551-4.183 11.359-169.227 65.629v-579.885zM521.413 917.771l-448.744-167.282 169.558-65.785 465.103 160.998zM763.389 823.897l-465.082-161.019 195.215-75.724 457.108 164.112z" />
<glyph unicode="&#xe950;" glyph-name="file" d="M53.951 46.37c-24.575 8.273-41.133 24.36-50.121 48.717-3.139 8.502-3.139 9.257-3.558 346.333-0.271 215.558 0.136 341.331 1.064 347.543 2.236 14.525 10.307 30.14 21.221 41.054 13.23 13.23 28.106 20.157 47.371 22.042 4.596 0.443 89.853 0.283 189.448-0.363 178.656-1.172 181.189-1.239 189.759-4.378 13.297-4.89 21.812-10.495 30.246-19.928 6.91-7.708 19.657-30.369 19.657-34.949 0-1.348 18.055-1.833 72.661-1.967 39.963-0.136 144.219-0.647 231.675-1.241 158.298-1.052 159.065-1.077 169.145-4.407 12.178-4.026 26.636-13.392 34.075-22.070 3.005-3.49 7.61-10.805 10.238-16.248 4.448-9.188 4.866-11.441 5.878-31.946 0.589-12.14 1.13-153.232 1.196-313.538 0.094-253.486-0.173-292.601-2.14-300.159-6.954-26.649-26.867-47.384-52.762-54.877-7.884-2.291-45.865-2.491-458.027-2.343-416.782 0.134-449.98 0.351-457.026 2.724v0zM984.456 712.34c0 10.051-0.688 14.362-3.086 19.052-3.475 6.818-12.878 14.295-21.083 16.747-5.726 1.726-450.506 4.985-454.793 3.342-1.791-0.688-1.98-4.69-1.077-23.821 0.592-12.638 1.266-23.201 1.495-23.457 0.539-0.607 334.758-4.34 415.772-4.621l62.772-0.229v12.987h0.002z" />
<glyph unicode="&#xe951;" glyph-name="menu" d="M512 714.23c67.873 0 122.925 55.012 122.925 122.885s-55.052 122.885-122.925 122.885c-67.873 0-122.925-55.012-122.925-122.885 0.040-67.833 55.052-122.885 122.925-122.885zM512 181.769c-67.873 0-122.925-55.012-122.925-122.885s55.052-122.885 122.925-122.885c67.873 0 122.925 55.012 122.925 122.885s-55.052 122.885-122.925 122.885zM512 570.904c-67.873 0-122.925-55.012-122.925-122.885s55.052-122.885 122.925-122.885c67.873 0 122.925 55.012 122.925 122.885s-55.052 122.885-122.925 122.885z" />
<glyph unicode="&#xe952;" glyph-name="arrow" d="M410.409 680.212l203.182-232.212-203.182-232.212z" />
<glyph unicode="&#xe953;" glyph-name="add-staff" d="M556.8 486.4c64 48 105.6 124.8 105.6 208 0 144-115.2 262.4-259.2 262.4-144 3.2-259.2-115.2-259.2-259.2 0-83.2 41.6-160 102.4-208-131.2-60.8-224-192-230.4-345.6 0-22.4 19.2-41.6 41.6-41.6s41.6 19.2 41.6 41.6c9.6 153.6 134.4 284.8 288 291.2h22.4c96-3.2 182.4-54.4 233.6-128h99.2c-35.2 80-102.4 144-185.6 179.2v0zM406.4 524.8h-9.6c-92.8 3.2-166.4 76.8-166.4 172.8s76.8 172.8 172.8 172.8c96 0 172.8-76.8 172.8-172.8s-76.8-169.6-169.6-172.8v0zM681.6 864c73.6-19.2 153.6-86.4 153.6-166.4 0-60.8-41.6-124.8-89.6-153.6v0c-22.4-9.6-38.4-28.8-38.4-57.6v-6.4c0-32 25.6-57.6 57.6-60.8 0 0 0 0 3.2 0 51.2-22.4 99.2-64 134.4-115.2h105.6c-38.4 76.8-102.4 137.6-182.4 176v3.2c60.8 48 96 124.8 96 211.2 0 137.6-105.6 249.6-240 259.2h-3.2c-25.6 0-44.8-19.2-44.8-44.8 0-22.4 22.4-44.8 48-44.8v0zM940.8 144h-83.2v83.2c0 22.4-19.2 41.6-41.6 41.6s-41.6-19.2-41.6-41.6v-83.2h-83.2c-22.4 0-41.6-19.2-41.6-41.6s19.2-41.6 41.6-41.6h83.2v-83.2c0-22.4 19.2-41.6 41.6-41.6s41.6 19.2 41.6 41.6v83.2h83.2c22.4 0 41.6 19.2 41.6 41.6s-16 41.6-41.6 41.6v0z" />
<glyph unicode="&#xe954;" glyph-name="setting-filled" d="M1006.345 632.577c-80.251 134.821-80.251 138.031-80.251 138.031s-279.273-77.041-330.633 189.392c-160.502 0-160.502 0-160.502 0s-44.94-269.643-330.633-189.392c-83.461-138.031-86.671-141.241-86.671-141.241s224.702-157.292 0-369.154c86.671-141.241 86.671-141.241 86.671-141.241s247.172 105.931 327.423-182.972c163.712 0 163.712 0 163.712 0s51.361 266.433 327.423 189.392c80.251 134.821 80.251 134.821 80.251 134.821s-208.652 179.762 3.21 372.364v0zM512 257.003c-102.721 0-189.392 83.461-189.392 189.392 0 102.721 83.461 189.392 189.392 189.392 102.721 0 189.392-83.461 189.392-189.392-3.21-102.721-86.671-189.392-189.392-189.392v0z" />
<glyph unicode="&#xe955;" glyph-name="checked" d="M997.8 768.8v0c-22.1 22.1-60.1 22.1-82.2 0l-519.4-522.3-292 294.8c-22.1 22.1-60 22.1-82.2 0v0c-22.1-22.1-22.1-56.9 0-79l328.7-328.7c-16.5 22-14.7 52.6 5.4 72.7v0c-20.1-20.1-21.9-50.7-5.4-72.7 1.6-2.2 3.4-4.3 5.4-6.3 11.2-11.2 25.6-16.7 39.9-16.6 14.4-0.1 28.7 5.4 39.9 16.6 2 2 3.8 4.1 5.4 6.3 0.1 0.1 0.1 0.2 0.2 0.3l556 556c22.4 22 22.4 56.8 0.3 78.9z" />
<glyph unicode="&#xe956;" glyph-name="staff" d="M874.069 958.405h-727.327c-82.941 0-146.741-63.801-146.741-146.741v-730.517c0-79.751 63.801-143.551 146.741-143.551h730.517c79.751 0 146.741 63.801 146.741 146.741v727.327c-3.19 82.941-66.991 146.741-149.931 146.741zM523.165 738.293c70.181-6.38 127.601-63.801 133.981-133.981 6.38-89.321-66.991-162.692-156.312-156.312-70.181 6.38-127.601 63.801-133.981 133.981-9.57 89.321 66.991 162.692 156.312 156.312zM800.698 157.707h-580.586v73.371c0 95.701 194.592 146.741 290.293 146.741 98.891 0 290.293-47.85 290.293-146.741v-73.371z" />
<glyph unicode="&#xe957;" glyph-name="heart-filled" d="M951.853 436.364l-388.654-383.999c0 0-16.29-23.272-51.2-23.272s-51.2 23.272-51.2 23.272l-388.654 383.999c-44.217 46.546-72.145 107.054-72.145 176.872 0 139.636 114.036 253.671 251.345 253.671 69.818 0 132.654-27.927 176.872-72.145l81.455-93.091 81.455 93.091c46.546 44.217 107.054 72.145 176.872 72.145 139.636 0 251.345-114.036 251.345-253.671 4.655-67.491-23.272-130.327-67.491-176.872z" />
<glyph unicode="&#xe958;" glyph-name="transfer-position" d="M956.8 860.8c19.2 0 35.2-16 35.2-35.2v-211.2c0-19.2-16-35.2-35.2-35.2s-35.2 16-35.2 35.2v211.2c0 19.2 16 35.2 35.2 35.2zM80 329.6c19.2 0 35.2-16 35.2-35.2v-211.2c0-19.2-16-35.2-35.2-35.2s-35.2 16-35.2 35.2v211.2c-3.2 19.2 12.8 35.2 35.2 35.2zM515.2-64c-214.4 0-406.4 144-464 352-6.4 16 6.4 35.2 22.4 38.4 16 6.4 35.2-6.4 38.4-22.4 51.2-179.2 217.6-304 403.2-304 204.8 0 380.8 147.2 412.8 348.8 3.2 16 19.2 28.8 38.4 25.6 16-3.2 28.8-19.2 25.6-38.4-38.4-230.4-236.8-400-476.8-400zM76.8 521.6c-3.2 0-3.2 0-6.4 0-16 3.2-28.8 19.2-25.6 38.4 41.6 230.4 240 400 476.8 400 214.4 0 400-137.6 464-339.2 6.4-16-3.2-35.2-22.4-41.6-16-6.4-35.2 3.2-41.6 22.4-51.2 176-214.4 294.4-400 294.4-204.8 0-377.6-147.2-412.8-348.8-3.2-16-16-25.6-32-25.6z" />
<glyph unicode="&#xe959;" glyph-name="no-members" d="M512 960c-281.6 0-512-230.4-512-512s230.4-512 512-512 512 230.4 512 512c0 281.6-230.4 512-512 512zM528 675.2c57.6-3.2 102.4-51.2 105.6-105.6 6.4-70.4-54.4-131.2-124.8-124.8-57.6 3.2-102.4 51.2-105.6 105.6-6.4 70.4 51.2 128 124.8 124.8zM748.8 211.2h-464v57.6c0 76.8 153.6 115.2 233.6 115.2 76.8 0 233.6-38.4 233.6-115.2v-57.6z" />
<glyph unicode="&#xe95a;" glyph-name="multi-export" d="M975.849 244.163c-9.63 0-19.26 22.47-25.68 38.52-28.89 102.721-166.922 211.862-288.903 224.702v0c0-32.1-12.84-57.781-35.31-73.831-12.84-9.63-25.68-12.84-41.73-12.84s-32.1 6.42-44.94 16.050l-182.972 144.451c-19.26 16.050-32.1 41.73-32.1 67.411s12.84 51.36 32.1 67.411l182.972 144.451c0 0 3.21 3.21 6.42 3.21 9.63 6.42 22.47 9.63 38.52 9.63 12.84 0 28.89-3.21 38.52-12.84 32.1-19.26 35.31-51.36 38.52-64.201v-3.21c0-3.21 0-3.21 0-6.42v-6.42c189.392-32.1 362.734-221.492 362.734-407.674 0-35.31-6.42-67.411-16.050-102.721 0-16.050-16.050-28.89-32.1-25.68v0zM587.436 783.448v0c0 3.21 0 9.63-3.21 9.63l-179.762-144.451c-3.21 0-3.21-3.21-3.21-6.42s0-3.21 3.21-6.42l182.972-144.451c0 0 0 3.21 0 9.63v41.73c0 19.26 16.050 35.31 35.31 38.52 121.981 9.63 247.172-70.621 324.213-166.922-25.68 141.241-179.762 285.693-324.213 295.323-19.26 0-35.31 19.26-35.31 38.52v35.31zM587.436 783.448v0zM751.147-22.27h-609.906c-77.041 0-141.241 64.201-141.241 141.241v658.056c0 77.041 64.201 141.241 141.241 141.241h292.113v-80.251h-292.113c-32.1-3.21-60.991-28.89-60.991-60.991v-658.056c0-32.1 25.68-60.991 60.991-60.991h609.906c32.1 0 60.991 25.68 60.991 60.991v234.332h80.251v-234.332c0-77.041-64.201-141.241-141.241-141.241v0zM751.147-22.27v0z" />
<glyph unicode="&#xe95b;" glyph-name="no-records" d="M281.6 156.8h428.8v-51.2h-428.8v51.2zM281.6 320h428.8v-51.2h-428.8v51.2zM281.6 480h428.8v-51.2h-428.8v51.2zM825.6 748.8h-89.6v51.2c0 28.8-22.4 51.2-51.2 51.2h-64c-9.6 60.8-60.8 108.8-124.8 108.8-60.8 0-115.2-48-121.6-105.6h-64c-28.8 0-51.2-25.6-51.2-54.4v-51.2h-92.8c-35.2 0-64-28.8-64-64v-684.8c0-35.2 28.8-64 64-64h659.2c35.2 0 64 28.8 64 64v684.8c0 35.2-28.8 64-64 64zM310.4 800c0 3.2 0 3.2 0 0v0l118.4 3.2-3.2 28.8c0 3.2 0 3.2 0 6.4 0 41.6 32 73.6 73.6 73.6s73.6-32 73.6-73.6c0-3.2 0-3.2 0-6.4l-3.2-28.8h115.2c0 0 3.2 0 3.2-3.2v-137.6c0 0 0-3.2-3.2-3.2h-374.4c0 0-3.2 0-3.2 3.2v137.6zM838.4 0c0-6.4-6.4-12.8-12.8-12.8h-659.2c-6.4 0-12.8 6.4-12.8 12.8v684.8c0 6.4 6.4 12.8 12.8 12.8v0h92.8v-35.2c0-28.8 22.4-51.2 51.2-51.2h371.2c28.8 0 51.2 22.4 51.2 51.2v35.2h89.6c6.4 0 12.8-6.4 12.8-12.8v-684.8z" />
<glyph unicode="&#xe95c;" glyph-name="calendar" d="M510.4 561.2c31.9 0 57.4-25.5 57.4-57.4s-25.5-54.2-57.4-54.2-57.4 25.5-57.4 57.4 25.5 54.2 57.4 54.2zM736.9 561.2c31.9 0 57.4-25.5 57.4-57.4s-25.5-57.4-57.4-57.4-57.4 25.5-57.4 57.4 25.5 57.4 57.4 57.4zM283.9 561.2c31.9 0 57.4-25.5 57.4-57.4s-25.5-57.4-57.4-57.4c-31.9 0-57.4 25.5-57.4 57.4s25.5 57.4 57.4 57.4zM510.4 334.8c31.9 0 57.4-25.5 57.4-57.4s-25.5-54.2-57.4-54.2-57.4 25.4-57.4 57.3 25.5 54.3 57.4 54.3zM736.9 334.8c31.9 0 57.4-25.5 57.4-57.4s-25.5-57.4-57.4-57.4-57.4 25.5-57.4 57.4 25.5 57.4 57.4 57.4zM283.9 334.8c31.9 0 57.4-25.5 57.4-57.4s-25.5-57.4-57.4-57.4c-31.9 0-57.4 25.5-57.4 57.4s25.5 57.4 57.4 57.4zM906 845.2v0h-169.1v28.7c0 16-12.8 28.7-28.7 28.7s-28.7-12.8-28.7-28.7v-28.7h-338.2v28.7c0 16-12.8 28.7-28.7 28.7s-28.7-12.8-28.7-28.7v-28.7h-169.1c-63.8 0-114.8-51.1-114.8-111.7v-625.2c0-63.8 51-114.8 114.8-114.8h794.3c63.8 0 114.8 51 114.8 114.8v625.2c-3.1 60.6-54.1 111.7-117.9 111.7zM963.4 105.1c0-31.9-25.5-57.4-57.4-57.4h-791.2c-31.9 0-57.4 25.5-57.4 57.4v628.4c0 31.9 25.5 57.4 57.4 57.4h169.1v-86.1c0-15.9 12.8-28.7 28.7-28.7 16 0 28.7 12.8 28.7 28.7v86.1h338.1v-86.1c0-15.9 12.8-28.7 28.7-28.7s28.7 12.8 28.7 28.7v86.1h169.2v-3.2c31.9 0 57.4-25.5 57.4-57.4v-625.2z" />
<glyph unicode="&#xe95d;" glyph-name="01" d="M416 662.4c-3.2 102.4-48 153.6-137.6 153.6-92.8 0-137.6-54.4-137.6-153.6v-428.8c3.2-102.4 48-153.6 137.6-153.6s134.4 51.2 137.6 153.6v428.8zM0 672c0 92.8 28.8 163.2 86.4 214.4 54.4 48 115.2 73.6 188.8 73.6 76.8 0 140.8-25.6 195.2-73.6 54.4-51.2 83.2-121.6 83.2-214.4v-444.8c-3.2-92.8-28.8-163.2-83.2-214.4s-118.4-76.8-195.2-76.8c-73.6 0-137.6 25.6-188.8 76.8-57.6 48-86.4 121.6-86.4 214.4v444.8zM876.8 800l-137.6-105.6v153.6l137.6 102.4h140.8v-1008h-140.8v857.6z" />
<glyph unicode="&#xe95e;" glyph-name="02" d="M348.8 630.4c-3.2 86.4-41.6 128-115.2 131.2-76.8 0-115.2-44.8-115.2-131.2v-361.6c0-86.4 41.6-131.2 115.2-131.2 76.8 0 115.2 44.8 115.2 131.2v361.6zM0 640c0 80 25.6 137.6 73.6 182.4 44.8 41.6 99.2 64 160 64 64 0 118.4-22.4 163.2-64s70.4-102.4 70.4-182.4v-374.4c0-76.8-25.6-137.6-70.4-182.4-44.8-41.6-99.2-64-163.2-64-60.8 0-115.2 22.4-160 64-48 41.6-73.6 102.4-73.6 179.2v377.6zM553.6 140.8l323.2 416c12.8 16 22.4 32 25.6 48 3.2 12.8 3.2 25.6 3.2 38.4 0 32-9.6 60.8-28.8 83.2s-48 35.2-86.4 38.4c-32 0-60.8-9.6-80-32-22.4-22.4-35.2-54.4-38.4-92.8h-118.4c3.2 70.4 25.6 128 70.4 176 44.8 44.8 96 67.2 160 67.2 70.4 0 128-25.6 172.8-70.4s67.2-102.4 67.2-172.8c0-57.6-16-105.6-51.2-150.4l-265.6-342.4h316.8v-121.6h-470.4v115.2z" />
<glyph unicode="&#xe95f;" glyph-name="03" d="M352 627.2c0 86.4-41.6 131.2-115.2 134.4-76.8 0-115.2-44.8-118.4-131.2v-364.8c0-86.4 41.6-131.2 118.4-131.2s115.2 44.8 118.4 131.2v361.6zM0 636.8c0 80 25.6 140.8 73.6 182.4 44.8 41.6 99.2 64 163.2 64s118.4-22.4 166.4-64c44.8-41.6 70.4-102.4 70.4-182.4v-380.8c0-80-25.6-140.8-70.4-182.4s-99.2-64-166.4-64c-64 0-115.2 22.4-163.2 64-48 44.8-73.6 105.6-73.6 182.4v380.8zM726.4 512h41.6c41.6 0 73.6 12.8 96 35.2s35.2 51.2 35.2 86.4c0 35.2-12.8 67.2-35.2 89.6s-51.2 35.2-86.4 35.2c-25.6 0-48-9.6-70.4-25.6s-38.4-41.6-44.8-80h-118.4c6.4 64 32 118.4 73.6 160s92.8 64 153.6 67.2c76.8 0 134.4-25.6 179.2-73.6 41.6-48 64-105.6 64-169.6 0-32-6.4-64-19.2-96s-38.4-57.6-73.6-83.2c35.2-22.4 60.8-51.2 76.8-83.2s22.4-67.2 22.4-102.4c0-80-25.6-144-73.6-188.8-48-48-105.6-70.4-179.2-73.6-57.6 0-105.6 19.2-150.4 57.6s-70.4 92.8-86.4 163.2h118.4c9.6-28.8 25.6-51.2 44.8-70.4s44.8-28.8 80-28.8c35.2 0 64 12.8 89.6 38.4 25.6 22.4 38.4 57.6 38.4 99.2 0 44.8-12.8 76.8-38.4 102.4-22.4 22.4-54.4 35.2-92.8 35.2h-51.2v105.6z" />
<glyph unicode="&#xe960;" glyph-name="jobs-manage" d="M512 931.2c268.8 0 486.4-217.6 486.4-486.4s-217.6-486.4-486.4-486.4-486.4 220.8-486.4 486.4c0 268.8 217.6 486.4 486.4 486.4zM512 956.8c-281.6 0-512-230.4-512-512s230.4-512 512-512 512 230.4 512 512c0 284.8-230.4 512-512 512v0zM512 604.8c41.6 0 76.8-35.2 76.8-76.8s-35.2-76.8-76.8-76.8-76.8 35.2-76.8 76.8 35.2 76.8 76.8 76.8zM512 630.4c-57.6 0-102.4-44.8-102.4-102.4s44.8-102.4 102.4-102.4 102.4 44.8 102.4 102.4-44.8 102.4-102.4 102.4v0zM668.8 262.4c-6.4 0-12.8 6.4-12.8 12.8 0 83.2-67.2 147.2-147.2 147.2-83.2 0-147.2-67.2-147.2-147.2 0-6.4-6.4-12.8-12.8-12.8s-12.8 6.4-12.8 12.8c0 96 76.8 172.8 172.8 172.8s172.8-76.8 172.8-172.8c0-6.4-3.2-12.8-12.8-12.8z" />
<glyph unicode="&#xe961;" glyph-name="hr-manage" d="M512 934.4c268.8 0 486.4-217.6 486.4-486.4s-217.6-486.4-486.4-486.4-486.4 217.6-486.4 486.4c0 268.8 217.6 486.4 486.4 486.4zM512 960c-281.6 0-512-230.4-512-512s230.4-512 512-512c281.6 0 512 230.4 512 512s-230.4 512-512 512v0zM665.6 403.2c3.2 0 9.6-3.2 9.6-9.6v-102.4c0-3.2-3.2-9.6-9.6-9.6h-102.4c-3.2 0-9.6 3.2-9.6 9.6v112h112zM665.6 428.8h-137.6v-137.6c0-19.2 16-35.2 35.2-35.2h102.4c19.2 0 35.2 16 35.2 35.2v102.4c0 19.2-16 35.2-35.2 35.2v0zM470.4 403.2v-112c0-3.2-3.2-9.6-9.6-9.6h-102.4c-3.2 0-9.6 3.2-9.6 9.6v102.4c0 3.2 3.2 9.6 9.6 9.6h112zM496 428.8h-137.6c-19.2 0-35.2-16-35.2-35.2v-102.4c0-19.2 16-35.2 35.2-35.2h102.4c19.2 0 35.2 16 35.2 35.2v137.6zM460.8 608c3.2 0 9.6-3.2 9.6-9.6v-112h-112c-3.2 0-9.6 3.2-9.6 9.6v102.4c0 3.2 3.2 9.6 9.6 9.6h102.4zM460.8 633.6h-102.4c-19.2 0-35.2-16-35.2-35.2v-102.4c0-19.2 16-35.2 35.2-35.2h137.6v137.6c0 19.2-16 35.2-35.2 35.2v0zM665.6 608c3.2 0 9.6-3.2 9.6-9.6v-102.4c0-3.2-3.2-9.6-9.6-9.6h-112v112c0 3.2 3.2 9.6 9.6 9.6h102.4zM665.6 633.6h-102.4c-19.2 0-35.2-16-35.2-35.2v-137.6h137.6c19.2 0 35.2 16 35.2 35.2v102.4c0 19.2-16 35.2-35.2 35.2v0z" />
<glyph unicode="&#xe962;" glyph-name="approval-manage" d="M665.6 336c3.2 0 9.6-3.2 9.6-9.6v-35.2c0-3.2-3.2-9.6-9.6-9.6h-307.2c-3.2 0-9.6 3.2-9.6 9.6v35.2c0 3.2 3.2 9.6 9.6 9.6h307.2zM665.6 361.6h-307.2c-19.2 0-35.2-16-35.2-35.2v-35.2c0-19.2 16-35.2 35.2-35.2h307.2c19.2 0 35.2 16 35.2 35.2v35.2c0 19.2-16 35.2-35.2 35.2v0zM512 608c41.6 0 76.8-35.2 76.8-76.8s-35.2-76.8-76.8-76.8c-41.6 0-76.8 35.2-76.8 76.8s35.2 76.8 76.8 76.8zM512 633.6c-57.6 0-102.4-44.8-102.4-102.4s44.8-102.4 102.4-102.4 102.4 44.8 102.4 102.4-44.8 102.4-102.4 102.4v0zM512 934.4c268.8 0 486.4-217.6 486.4-486.4s-217.6-483.2-486.4-483.2-486.4 217.6-486.4 483.2 217.6 486.4 486.4 486.4zM512 960c-281.6 0-512-227.2-512-512 0-281.6 230.4-512 512-512s512 227.2 512 512c0 284.8-230.4 512-512 512v0zM460.8 448h25.6v-89.6h-25.6v89.6zM537.6 448h25.6v-89.6h-25.6v89.6z" />
<glyph unicode="&#xe963;" glyph-name="employee-care" d="M512 934.4c268.8 0 486.4-217.6 486.4-486.4s-217.6-486.4-486.4-486.4-486.4 217.6-486.4 486.4c0 268.8 217.6 486.4 486.4 486.4zM512 960c-281.6 0-512-230.4-512-512s230.4-512 512-512c281.6 0 512 230.4 512 512s-230.4 512-512 512v0zM502.4 246.4c-3.2 0-6.4 0-12.8 3.2-12.8 6.4-64 38.4-112 80-28.8 25.6-51.2 51.2-70.4 76.8-22.4 32-32 67.2-32 96 0 48 12.8 86.4 38.4 108.8 22.4 22.4 54.4 35.2 96 35.2 35.2 0 67.2-12.8 92.8-38.4 25.6 25.6 57.6 38.4 92.8 38.4 38.4 0 73.6-12.8 96-35.2 25.6-25.6 38.4-64 38.4-108.8 0-32-12.8-64-32-96-16-25.6-38.4-51.2-70.4-76.8-48-41.6-99.2-73.6-112-80-3.2-3.2-6.4-3.2-12.8-3.2zM409.6 620.8c-32 0-57.6-9.6-76.8-28.8s-32-51.2-32-92.8c0-25.6 9.6-54.4 28.8-83.2 16-22.4 38.4-48 64-70.4 44.8-41.6 96-70.4 105.6-76.8v0c0 0 0 0 0 0 9.6 3.2 60.8 35.2 105.6 76.8 28.8 25.6 48 48 64 70.4 19.2 28.8 28.8 57.6 28.8 83.2 0 41.6-9.6 70.4-32 92.8-19.2 19.2-44.8 28.8-76.8 28.8s-60.8-12.8-83.2-38.4l-9.6-9.6-9.6 9.6c-16 25.6-44.8 38.4-76.8 38.4z" />
<glyph unicode="&#xe964;" glyph-name="account-manage" d="M512 934.4c268.8 0 486.4-217.6 486.4-486.4s-217.6-486.4-486.4-486.4-486.4 220.8-486.4 486.4 217.6 486.4 486.4 486.4zM512 960c-281.6 0-512-230.4-512-512s230.4-512 512-512c281.6 0 512 230.4 512 512s-230.4 512-512 512v0zM512 492.8c22.4 0 41.6-19.2 41.6-41.6s-19.2-41.6-41.6-41.6c-22.4 0-41.6 19.2-41.6 41.6s19.2 41.6 41.6 41.6zM512 518.4c-38.4 0-67.2-32-67.2-67.2 0-38.4 32-67.2 67.2-67.2 38.4 0 67.2 32 67.2 67.2s-28.8 67.2-67.2 67.2v0zM454.4 611.2c3.2-3.2 32-32 57.6-32 28.8 0 54.4 25.6 57.6 28.8l44.8-25.6c-3.2-3.2-6.4-16-6.4-28.8 0-41.6 32-73.6 70.4-76.8 0-6.4 3.2-22.4 3.2-32 0-12.8-3.2-25.6-3.2-32-38.4-3.2-70.4-35.2-70.4-76.8 0-12.8 3.2-22.4 6.4-28.8l-44.8-19.2c-3.2 6.4-32 32-60.8 32s-57.6-28.8-60.8-32l-41.6 22.4c3.2 6.4 6.4 16 6.4 28.8 0 41.6-32 73.6-70.4 76.8 0 6.4-3.2 19.2-3.2 32s3.2 25.6 3.2 32c38.4 3.2 70.4 35.2 70.4 76.8 0 12.8-3.2 22.4-6.4 28.8l48 25.6zM454.4 636.8c-3.2 0-6.4 0-9.6-3.2v0l-51.2-28.8c-9.6-6.4-12.8-19.2-9.6-28.8 0 0 3.2-9.6 3.2-19.2 0-28.8-22.4-51.2-51.2-51.2h-3.2c0 0 0 0 0 0-9.6 0-16-6.4-16-19.2 0 0-3.2-22.4-3.2-38.4s3.2-38.4 3.2-38.4c3.2-9.6 9.6-19.2 16-19.2 0 0 0 0 0 0h3.2c28.8 0 51.2-22.4 51.2-51.2 0-9.6-3.2-19.2-3.2-19.2-3.2-9.6 0-22.4 6.4-28.8v0l48-25.6c3.2 0 6.4-3.2 9.6-3.2 6.4 0 12.8 3.2 19.2 6.4 6.4 6.4 25.6 22.4 41.6 22.4s35.2-16 41.6-25.6c3.2-6.4 12.8-6.4 19.2-6.4 0 0 0 0 0 0 3.2 0 6.4 0 9.6 3.2v0l51.2 28.8c9.6 6.4 12.8 19.2 6.4 28.8 0 0-3.2 9.6-3.2 19.2 0 28.8 22.4 51.2 51.2 51.2h3.2c0 0 0 0 0 0 9.6 0 16 6.4 16 19.2 0 0 3.2 22.4 3.2 38.4s-3.2 38.4-3.2 38.4c-3.2 9.6-9.6 19.2-16 19.2 0 0 0 0 0 0h-3.2c-28.8 0-51.2 22.4-51.2 51.2 0 9.6 3.2 19.2 3.2 19.2 3.2 9.6 0 22.4-6.4 28.8v0l-48 28.8c-3.2 0-6.4 3.2-9.6 3.2-6.4 0-12.8-3.2-19.2-6.4-6.4-6.4-25.6-22.4-41.6-22.4s-35.2 16-41.6 22.4c-3.2 3.2-9.6 6.4-16 6.4v0z" />
<glyph unicode="&#xe965;" glyph-name="organizational-structure" d="M512 934.4c268.8 0 486.4-217.6 486.4-486.4s-217.6-486.4-486.4-486.4-486.4 220.8-486.4 486.4 217.6 486.4 486.4 486.4zM512 960c-281.6 0-512-230.4-512-512s230.4-512 512-512c281.6 0 512 230.4 512 512s-230.4 512-512 512v0zM444.8 387.2c3.2 0 9.6-3.2 9.6-9.6v-86.4c0-3.2-3.2-9.6-9.6-9.6h-86.4c-3.2 0-9.6 3.2-9.6 9.6v86.4c0 3.2 3.2 9.6 9.6 9.6h86.4zM444.8 412.8h-86.4c-19.2 0-35.2-16-35.2-35.2v-86.4c0-19.2 16-35.2 35.2-35.2h86.4c19.2 0 35.2 16 35.2 35.2v86.4c-3.2 19.2-16 35.2-35.2 35.2v0zM681.6 387.2c3.2 0 9.6-3.2 9.6-9.6v-86.4c0-3.2-3.2-9.6-9.6-9.6h-86.4c-3.2 0-9.6 3.2-9.6 9.6v86.4c0 3.2 3.2 9.6 9.6 9.6h86.4zM681.6 412.8h-86.4c-19.2 0-35.2-16-35.2-35.2v-86.4c0-19.2 16-35.2 35.2-35.2h86.4c19.2 0 35.2 16 35.2 35.2v86.4c0 19.2-16 35.2-35.2 35.2v0zM563.2 624c3.2 0 9.6-3.2 9.6-9.6v-86.4c0-3.2-3.2-9.6-9.6-9.6h-86.4c-3.2 0-9.6 3.2-9.6 9.6v86.4c0 3.2 3.2 9.6 9.6 9.6h86.4zM563.2 649.6h-86.4c-19.2 0-35.2-16-35.2-35.2v-86.4c0-19.2 16-35.2 35.2-35.2h86.4c19.2 0 35.2 16 35.2 35.2v86.4c0 22.4-16 35.2-35.2 35.2v0zM460.8 371.2h118.4v-25.6h-118.4v25.6zM633.6 390.4c-3.2 0-9.6 3.2-12.8 6.4l-51.2 102.4c-3.2 6.4 0 12.8 6.4 16s12.8 0 16-6.4l51.2-102.4c3.2-6.4 0-12.8-6.4-16 0 0 0 0-3.2 0zM412.8 393.6c-3.2 0-3.2 0-6.4 0-6.4 3.2-9.6 9.6-6.4 16l54.4 102.4c3.2 6.4 9.6 9.6 16 6.4s9.6-9.6 6.4-16l-54.4-102.4c0-6.4-6.4-6.4-9.6-6.4z" />
<glyph unicode="&#xe966;" glyph-name="offer-entry" d="M512 934.4c268.8 0 486.4-217.6 486.4-486.4s-217.6-486.4-486.4-486.4-486.4 217.6-486.4 486.4c0 268.8 217.6 486.4 486.4 486.4zM512 960c-281.6 0-512-230.4-512-512s230.4-512 512-512c281.6 0 512 230.4 512 512s-230.4 512-512 512v0zM419.2 531.2h188.8c3.2 0 9.6-3.2 9.6-9.6 0-3.2-3.2-9.6-9.6-9.6h-188.8c-3.2 0-9.6 3.2-9.6 9.6s3.2 9.6 9.6 9.6zM419.2 464h188.8c3.2 0 9.6-3.2 9.6-9.6s-3.2-9.6-9.6-9.6h-188.8c-3.2 0-9.6 3.2-9.6 9.6s3.2 9.6 9.6 9.6zM656 608v-268.8l-57.6-54.4h-233.6v323.2h291.2zM659.2 633.6h-294.4c-12.8 0-22.4-9.6-22.4-22.4v-329.6c0-12.8 9.6-22.4 22.4-22.4h246.4l70.4 70.4v281.6c0 12.8-9.6 22.4-22.4 22.4v0zM604.8 262.4c-6.4 0-12.8 6.4-12.8 12.8v60.8c0 6.4 6.4 12.8 12.8 12.8h60.8c6.4 0 12.8-6.4 12.8-12.8s-6.4-12.8-12.8-12.8h-48v-48c0-6.4-6.4-12.8-12.8-12.8z" />
<glyph unicode="&#xe967;" glyph-name="not-join" d="M416 582.4c115.2 0 208 83.2 208 188.8s-92.8 188.8-208 188.8c-115.2 0-208-83.2-208-188.8 0-102.4 92.8-188.8 208-188.8v0zM652.8 451.2c-57.6 54.4-169.6 76.8-240 80-227.2 6.4-412.8-233.6-412.8-521.6 0-9.6 0-19.2 0-28.8h489.6c-16 16-35.2 44.8-41.6 83.2 0 166.4 16 300.8 204.8 387.2v0zM755.2 387.2c-124.8 0-224-99.2-224-224s99.2-224 224-224 224 99.2 224 224c0 124.8-99.2 224-224 224v0zM755.2 3.2c-89.6 0-160 70.4-160 160 0 35.2 12.8 70.4 32 96l224-224c-25.6-19.2-60.8-32-96-32v0zM896 89.6l-217.6 214.4c22.4 12.8 48 19.2 73.6 19.2 89.6 0 160-70.4 160-160 3.2-25.6-3.2-51.2-16-73.6v0z" />
<glyph unicode="&#xe968;" glyph-name="export" d="M835.2 515.2l118.4-118.4c0-3.2 0-6.4 0-9.6 0 0-3.2-3.2-3.2-3.2v0l-3.2-3.2-121.6-140.8v102.4l-67.2 3.2c-3.2 0-6.4 0-9.6 0-48 0-140.8-9.6-227.2-70.4 35.2 76.8 108.8 147.2 246.4 153.6l67.2 3.2v83.2zM800 630.4c-9.6 0-19.2-3.2-25.6-9.6-6.4-9.6-6.4-22.4-6.4-28.8v-96c-320-12.8-348.8-316.8-352-377.6 0-3.2 0-12.8 6.4-22.4l6.4-6.4h9.6c9.6 0 19.2 6.4 25.6 16 83.2 153.6 227.2 169.6 284.8 169.6 3.2 0 6.4 0 6.4 0v-118.4c0-12.8 3.2-22.4 6.4-28.8 6.4-9.6 16-16 25.6-16 12.8 0 25.6 9.6 28.8 16l179.2 208c3.2 3.2 22.4 22.4 22.4 48 0 22.4-3.2 44.8-6.4 51.2l-195.2 195.2c-3.2 0-9.6 0-16 0v0zM172.8 476.8h275.2c19.2 0 35.2-16 35.2-35.2s-16-35.2-35.2-35.2h-275.2c-19.2 0-35.2 16-35.2 35.2s16 35.2 35.2 35.2zM172.8 339.2h137.6c19.2 0 35.2-16 35.2-35.2s-16-35.2-35.2-35.2h-137.6c-19.2 0-35.2 16-35.2 35.2s16 35.2 35.2 35.2zM172.8 614.4h412.8c19.2 0 35.2-16 35.2-35.2s-19.2-35.2-35.2-35.2h-412.8c-19.2 0-35.2 16-35.2 35.2s16 35.2 35.2 35.2zM688 64h-550.4c-38.4 0-67.2 32-67.2 67.2v620.8c0 38.4 32 67.2 67.2 67.2h550.4c38.4 0 67.2-32 67.2-67.2v-44.8h67.2v44.8c0 76.8-60.8 137.6-137.6 137.6h-547.2c-76.8 0-137.6-60.8-137.6-137.6v-617.6c0-76.8 60.8-137.6 137.6-137.6h550.4c51.2 0 99.2 28.8 121.6 73.6h-99.2c-6.4-6.4-16-6.4-22.4-6.4z" />
<glyph unicode="&#xe969;" glyph-name="join" d="M899.2 960h-771.2c-25.6 0-48-22.4-48-51.2v-41.6h729.6c28.8 0 51.2-22.4 51.2-51.2v-880h41.6c28.8 0 51.2 22.4 51.2 51.2v921.6c-3.2 28.8-25.6 51.2-54.4 51.2v0zM723.2 784h-620.8c-28.8 0-51.2-22.4-51.2-51.2v-745.6c0-28.8 22.4-51.2 51.2-51.2h620.8c28.8 0 51.2 22.4 51.2 51.2v745.6c0 28.8-22.4 51.2-51.2 51.2v0zM217.6 73.6c0 118.4 76.8 217.6 172.8 233.6-73.6 12.8-128 73.6-128 150.4 0 83.2 67.2 153.6 153.6 153.6 83.2 0 153.6-67.2 153.6-153.6 0-76.8-54.4-137.6-128-150.4 99.2-12.8 172.8-112 172.8-233.6h-396.8z" />
<glyph unicode="&#xe96a;" glyph-name="filters" d="M928 886.4l-342.4-342.4v-486.4l-147.2 131.2v355.2l-342.4 342.4h832zM969.6 960h-912c-22.4 0-44.8-12.8-54.4-35.2-6.4-22.4-3.2-44.8 12.8-60.8l348.8-348.8v-342.4c0-9.6 3.2-19.2 12.8-25.6l224-198.4c6.4-6.4 16-9.6 22.4-9.6s9.6 0 16 3.2c12.8 6.4 22.4 19.2 22.4 32v544l345.6 345.6c16 16 22.4 41.6 12.8 64-9.6 19.2-32 32-51.2 32v0z" />
<glyph unicode="&#xe96b;" glyph-name="delete" d="M985.6 886.4h-144c-12.8 0-25.6 0-38.4 0h-217.6c0 41.6-32 73.6-73.6 73.6s-73.6-32-73.6-73.6h-217.6c-12.8 0-25.6 0-38.4 0h-147.2c-19.2 0-35.2-16-35.2-35.2 0-22.4 16-38.4 35.2-35.2h38.4c0-1.1 0-2.1 0-3.2v-732.8c0-80 64-147.2 147.2-147.2h585.6c80 0 147.2 64 147.2 147.2v732.8c0 1.1-0.1 2.1-0.2 3.2h32.2c19.2 0 35.2 16 35.2 35.2s-16 35.2-35.2 35.2zM876.8 83.2c0-41.6-32-73.6-73.6-73.6h-582.4c-41.6 0-73.6 32-73.6 73.6v729.6c6.4 0 19.2 0 35.2 0h659.2c19.2 0 28.8 0 35.2 0v-729.6zM403.2 668.8c19.2 0 35.2-16 35.2-35.2v-441.6c0-19.2-16-35.2-35.2-35.2s-35.2 16-35.2 35.2v438.4c-3.2 19.2 12.8 38.4 35.2 38.4zM620.8 668.8c19.2 0 35.2-16 35.2-35.2v-441.6c0-19.2-16-35.2-35.2-35.2s-35.2 16-35.2 35.2v438.4c0 19.2 16 38.4 35.2 38.4z" />
<glyph unicode="&#xe96c;" glyph-name="full-memeber" d="M512 960c-281.6 0-512-227.2-512-512s230.4-512 512-512 512 230.4 512 512-230.4 512-512 512zM512 9.6c-243.2 0-438.4 198.4-438.4 438.4s195.2 441.6 438.4 441.6c243.2 0 438.4-198.4 438.4-438.4s-195.2-441.6-438.4-441.6zM790.4 585.6v0c-16 16-41.6 16-57.6 0l-259.2-259.2-112 112c-16 16-41.6 16-57.6 0s-16-41.6 0-57.6l137.6-137.6c8.8-8.8 20.6-12.8 32-11.9 11.4-0.9 23.2 3 32 11.9l284.8 284.8c16 16 16 41.6 0 57.6z" />
<glyph unicode="&#xe96d;" glyph-name="mark-hire" d="M809.6 652.8c0 169.6-137.6 307.2-307.2 307.2s-307.2-137.6-307.2-307.2c0-112.7 60.8-211.3 151.4-264.7-158.2-59-273.6-205.4-285.8-381.7h67.2c19.2 188.8 179.2 339.2 374.4 339.2 0 0 0 0 0 0 89.6 0 172.8-32 236.8-83.2 0 22.4 0 48 0 83.2-25.2 16.8-52.7 30.9-81.8 42 91 53.3 152.2 152.1 152.2 265.2zM262.4 652.8c0 131.2 108.8 240 240 240s240-108.8 240-240c0-120.6-92-222.3-208.8-237.9-10.3 0.7-20.7 1.1-31.2 1.1-10.6 0-21-0.4-31.4-1.1-116.7 15.7-208.6 117.3-208.6 237.9zM1004.8 265.6v0c-16 16-41.6 16-57.6 0l-238.4-238.4-104 104c-16 12.8-41.6 12.8-54.4 0-16-16-16-38.4 0-54.4l131.2-131.2c0 0 0 0 0 0 8-8 17.6-12 27.2-12s19.2 4 27.2 12c0 0 0 0 0 0l268.8 265.6c16 16 16 38.4 0 54.4z" />
<glyph unicode="&#xe96e;" glyph-name="send-offer" d="M806.4 457.6c-118.4 0-217.6-96-217.6-217.6 0-118.4 96-217.6 217.6-217.6 118.4 0 217.6 96 217.6 217.6s-96 217.6-217.6 217.6v0zM777.6 105.6l-137.6 134.4 60.8 60.8 76.8-76.8 134.4 134.4 60.8-60.8-195.2-192zM931.2 960h-838.4c-51.2 0-92.8-41.6-92.8-92.8v-35.2l460.8-233.6c25.6-12.8 48-12.8 73.6 0l489.6 236.8v32c0 51.2-41.6 92.8-92.8 92.8v0zM499.2 512c-25.6 0-48 6.4-70.4 16l-428.8 220.8v-630.4c0-51.2 41.6-92.8 92.8-92.8h540.8c-64 51.2-102.4 128-102.4 217.6 0 153.6 124.8 278.4 278.4 278.4 86.4 0 166.4-41.6 217.6-102.4v332.8l-457.6-224c-25.6-9.6-48-16-70.4-16v0z" />
<glyph unicode="&#xe96f;" glyph-name="edit-offer" d="M752 172.8c-12.8-12.8-25.6-25.6-38.4-38.4s-22.4-25.6-35.2-35.2l-35.2-35.2c-6.4-6.4-12.8-16-16-22.4 0-3.2-3.2-6.4-6.4-16-3.2-6.4-6.4-16-6.4-25.6-3.2-9.6-6.4-16-6.4-25.6-3.2-9.6-3.2-12.8-3.2-19.2 0-9.6 0-12.8 3.2-16 0-3.2 3.2-3.2 12.8-3.2 3.2 0 9.6 3.2 19.2 3.2 9.6 3.2 16 3.2 25.6 6.4s16 6.4 25.6 9.6c9.6 3.2 16 6.4 19.2 6.4 3.2 3.2 9.6 3.2 12.8 6.4s6.4 6.4 12.8 9.6c0 0 3.2 3.2 9.6 12.8 6.4 6.4 16 16 25.6 25.6l172.8 172.8-86.4 86.4c-41.6-38.4-76.8-70.4-105.6-102.4v0zM1008 265.6c0 9.6-3.2 16-3.2 19.2-3.2 9.6-9.6 19.2-19.2 25.6-6.4 9.6-16 16-22.4 19.2s-12.8 6.4-22.4 6.4c-9.6 0-19.2-3.2-25.6-9.6-3.2-3.2-6.4-6.4-12.8-12.8-6.4-3.2-9.6-9.6-12.8-12.8l86.4-86.4c3.2 0 3.2 3.2 6.4 6.4s3.2 3.2 6.4 6.4 6.4 6.4 9.6 9.6c6.4 12.8 9.6 22.4 9.6 28.8v0zM835.2 771.2v150.4c0 9.6-3.2 19.2-12.8 25.6-6.4 9.6-16 12.8-25.6 12.8h-153.6v-115.2c0-19.2 6.4-38.4 22.4-54.4s35.2-22.4 54.4-22.4v0l115.2 3.2zM684.8 704c-19.2 0-35.2 3.2-48 12.8s-25.6 19.2-32 32c-9.6 12.8-16 25.6-19.2 41.6s-6.4 28.8-6.4 41.6v128h-473.6c-9.6 0-19.2-3.2-28.8-12.8-6.4-6.4-9.6-16-9.6-25.6v-886.4c0-9.6 3.2-19.2 12.8-25.6 6.4-6.4 16-12.8 25.6-12.8h374.4l355.2 368v339.2h-150.4zM659.2 284.8h-416c-25.6 0-48 22.4-48 48s22.4 48 48 48h416c25.6 0 48-22.4 48-48s-22.4-48-48-48zM659.2 480h-416c-25.6 0-48 22.4-48 48s22.4 48 48 48h416c25.6 0 48-22.4 48-48s-22.4-48-48-48z" />
<glyph unicode="&#xe970;" glyph-name="edit" d="M1011.2 652.8l-643.2-646.4c-3.2-3.2-6.4-3.2-6.4-3.2-6.4-3.2-9.6-6.4-19.2-6.4-3.2 0-3.2 0-6.4 0 0 0 0 0-3.2 0l-284.8-60.8c-12.8 0-22.4 6.4-32 16-9.6 6.4-16 19.2-16 32l57.6 288c0 12.8 6.4 25.6 16 32l467.2 467.2c0 0 0 0 0 0s0 0 0 0l176 176c16 16 41.6 16 57.6 0l233.6-236.8c19.2-12.8 19.2-41.6 3.2-57.6v0zM99.2 32l224 44.8 425.6 428.8-176 176-428.8-428.8-44.8-220.8zM745.6 860.8l-118.4-118.4 176-176 118.4 118.4-176 176z" />
<glyph unicode="&#xe971;" glyph-name="permisssion" d="M860.8 550.4h-697.6c-57.6 0-102.4-44.8-102.4-102.4v-409.6c0-57.6 44.8-102.4 102.4-102.4h697.6c57.6 0 102.4 44.8 102.4 102.4v409.6c0 54.4-44.8 102.4-102.4 102.4zM553.6 198.4v-108.8h-67.2v108.8c-38.4 12.8-67.2 51.2-67.2 96 0 57.6 44.8 102.4 102.4 102.4s102.4-44.8 102.4-102.4c0-44.8-28.8-83.2-70.4-96zM246.4 592c0 147.2 118.4 265.6 265.6 265.6s265.6-118.4 265.6-265.6v-60.8h102.4v60.8c-3.2 201.6-166.4 368-368 368s-364.8-166.4-364.8-368v-60.8h102.4v60.8z" />
<glyph unicode="&#xe972;" glyph-name="help2" d="M512 960c-281.6 0-512-230.4-512-512s230.4-512 512-512c281.6 0 512 230.4 512 512s-230.4 512-512 512zM528 182.4c-9.6-9.6-19.2-12.8-32-12.8-16 0-25.6 3.2-35.2 12.8s-12.8 19.2-12.8 32c0 12.8 3.2 25.6 12.8 32 9.6 9.6 22.4 12.8 35.2 12.8s25.6-3.2 35.2-12.8c9.6-9.6 12.8-19.2 12.8-32-3.2-12.8-6.4-22.4-16-32zM643.2 576c-9.6-19.2-28.8-44.8-64-80-25.6-25.6-44.8-44.8-54.4-57.6s-12.8-28.8-12.8-44.8c0-19.2 3.2-38.4 12.8-57.6h-70.4c-6.4 19.2-9.6 38.4-9.6 60.8 0 16 3.2 32 12.8 51.2 6.4 16 25.6 41.6 57.6 70.4s51.2 51.2 57.6 67.2c6.4 16 9.6 28.8 9.6 41.6 0 25.6-9.6 41.6-25.6 57.6-16 12.8-38.4 22.4-64 22.4-44.8 0-86.4-19.2-121.6-54.4v73.6c41.6 25.6 86.4 38.4 131.2 38.4s83.2-12.8 112-35.2c28.8-22.4 41.6-54.4 41.6-96 0-16-6.4-35.2-12.8-57.6z" />
<glyph unicode="&#xe973;" glyph-name="backup" d="M963.2 960h-902.4c-35.2 0-60.8-25.6-60.8-60.8v-902.4c0-32 25.6-60.8 60.8-60.8h902.4c32 0 60.8 25.6 60.8 60.8v902.4c0 35.2-25.6 60.8-60.8 60.8zM179.2 537.6h240c32 0 60.8-25.6 60.8-60.8 0-32-25.6-60.8-60.8-60.8h-240c-32 0-60.8 25.6-60.8 60.8 3.2 35.2 28.8 60.8 60.8 60.8zM844.8 176h-665.6c-32 0-60.8 25.6-60.8 60.8s25.6 60.8 60.8 60.8h662.4c32 0 60.8-25.6 60.8-60.8s-25.6-60.8-57.6-60.8zM902.4 537.6l-121.6 60.8-121.6-60.8v361.6h240v-361.6z" />
<glyph unicode="&#xe974;" glyph-name="add2" d="M512 960c22.4 0 38.4-19.2 38.4-38.4v-944c0-22.4-19.2-38.4-38.4-38.4-22.4 0-38.4 19.2-38.4 38.4v944c0 19.2 16 38.4 38.4 38.4zM38.4 486.4h944c22.4 0 38.4-19.2 38.4-38.4 0-22.4-19.2-38.4-38.4-38.4h-944c-19.2 0-38.4 16-38.4 38.4s19.2 38.4 38.4 38.4z" />
<glyph unicode="&#xe975;" glyph-name="staff2" d="M489.6 419.2c166.4-12.8 304 124.8 291.2 291.2-9.6 131.2-118.4 236.8-249.6 249.6-166.4 12.8-304-124.8-291.2-291.2 12.8-134.4 118.4-240 249.6-249.6zM512 297.6c-169.6 0-512-80-512-240v-121.6h1024v121.6c0 160-342.4 240-512 240z" />
<glyph unicode="&#xe976;" glyph-name="staff-files" d="M521.6 291.2c-25.6 38.4-38.4 86.4-38.4 134.4 0 140.8 115.2 256 256 256 44.8 0 86.4-12.8 124.8-32v185.6c0 28.8-25.6 54.4-54.4 54.4h-755.2c-28.8 0-54.4-25.6-54.4-54.4v-755.2c0-28.8 25.6-54.4 54.4-54.4h275.2c0 6.4 0 9.6 0 16 0 108.8 76.8 204.8 192 249.6zM163.2 672h163.2c28.8 0 54.4-25.6 54.4-54.4s-25.6-54.4-54.4-54.4h-163.2c-28.8 0-54.4 25.6-54.4 54.4 0 32 22.4 54.4 54.4 54.4zM163.2 348.8c-28.8 0-54.4 25.6-54.4 54.4s25.6 54.4 54.4 54.4h163.2c28.8 0 54.4-25.6 54.4-54.4s-25.6-54.4-54.4-54.4h-163.2zM1024 54.4c0 102.4-76.8 188.8-185.6 224 48 35.2 76.8 89.6 76.8 153.6 0 105.6-83.2 188.8-188.8 188.8s-188.8-83.2-188.8-188.8c0-64 32-118.4 76.8-153.6-108.8-35.2-185.6-121.6-185.6-224 0-9.6 0-19.2 3.2-25.6h588.8c3.2 6.4 3.2 16 3.2 25.6z" />
<glyph unicode="&#xe977;" glyph-name="tag" d="M995.2 470.4l-460.8 460.8c-19.2 16-44.8 28.8-73.6 28.8h-358.4c-57.6 0-102.4-44.8-102.4-102.4v-358.4c0-28.8 12.8-54.4 28.8-73.6l460.8-460.8c19.2-19.2 44.8-28.8 73.6-28.8s54.4 12.8 73.6 28.8l358.4 358.4c19.2 19.2 28.8 44.8 28.8 73.6s-12.8 54.4-28.8 73.6v0zM179.2 704c-41.6 0-76.8 35.2-76.8 76.8s35.2 76.8 76.8 76.8c41.6 0 76.8-35.2 76.8-76.8s-35.2-76.8-76.8-76.8v0z" />
<glyph unicode="&#xe978;" glyph-name="upload" d="M896 592h-140.8v-57.6h140.8c32 0 57.6-25.6 57.6-57.6v-419.2c0-32-25.6-57.6-57.6-57.6h-768c-32 0-57.6 25.6-57.6 57.6v416c0 32 25.6 57.6 57.6 57.6h140.8v57.6h-140.8c-64 0-118.4-54.4-118.4-118.4v-419.2c0-60.8 54.4-115.2 118.4-115.2h768c64 0 118.4 54.4 118.4 118.4v419.2c0 64-54.4 118.4-118.4 118.4v0zM316.8 697.6l163.2 163.2v-553.6c0-16 12.8-28.8 28.8-28.8s28.8 12.8 28.8 28.8v550.4l160-160c6.4-6.4 12.8-9.6 22.4-9.6 6.4 0 16 3.2 22.4 9.6 12.8 12.8 12.8 28.8 0 41.6l-211.2 214.4c-6.4 3.2-12.8 6.4-22.4 6.4 0 0 0 0 0 0-6.4 0-16-3.2-22.4-9.6l-211.2-211.2c-12.8-12.8-12.8-28.8 0-41.6s32-12.8 41.6 0v0z" />
<glyph unicode="&#xe979;" glyph-name="info" d="M512 892.8c243.2 0 444.8-198.4 444.8-444.8s-201.6-444.8-444.8-444.8-444.8 201.6-444.8 444.8 201.6 444.8 444.8 444.8zM512 960c-281.6 0-512-230.4-512-512s230.4-512 512-512 512 230.4 512 512-230.4 512-512 512v0zM476.8 550.4h67.2v-342.4h-67.2v342.4zM476.8 688h67.2v-67.2h-67.2v67.2z" />
<glyph unicode="&#xe97a;" glyph-name="payroll" d="M819.2 883.2c12.8-22.4 32-41.6 54.4-54.4v-822.4h-729.6v822.4c22.4 12.8 41.6 32 54.4 54.4h38.4c25.6-44.8 73.6-73.6 124.8-73.6s102.4 28.8 124.8 73.6h38.4c25.6-44.8 73.6-73.6 124.8-73.6 54.4 0 102.4 28.8 124.8 73.6h44.8zM873.6 956.8h-147.2c0-41.6-32-73.6-73.6-73.6s-73.6 32-73.6 73.6h-147.2c0-41.6-32-73.6-73.6-73.6s-70.4 32-70.4 73.6h-144c0-41.6-32-73.6-73.6-73.6v-873.6c0-41.6 32-73.6 73.6-73.6h729.6c41.6 0 73.6 32 73.6 73.6v873.6c-41.6 0-73.6 32-73.6 73.6v0zM643.2 659.2l-96-166.4c-6.4-16-12.8-28.8-19.2-44.8v0c-6.4 16-12.8 32-19.2 41.6l-92.8 169.6h-80l134.4-224h-108.8v-54.4h131.2v-76.8h-131.2v-54.4h131.2v-112h70.4v112h128v54.4h-128v76.8h128v54.4h-108.8l137.6 224h-76.8z" />
<glyph unicode="&#xe97b;" glyph-name="wx-phone" d="M790.4 960h-556.8c-28.8 0-51.2-22.4-51.2-51.2v-921.6c0-28.8 22.4-51.2 51.2-51.2h556.8c28.8 0 51.2 22.4 51.2 51.2v921.6c0 28.8-22.4 51.2-51.2 51.2zM512-25.6c-38.4 0-70.4 32-70.4 70.4s32 70.4 70.4 70.4 70.4-32 70.4-70.4-32-70.4-70.4-70.4zM758.4 160h-492.8v716.8h489.6v-716.8z" />
<glyph unicode="&#xe97c;" glyph-name="wx-scan" d="M346.7 906.85h-290.7v-290.7h62.7v228h228zM968 616.15v290.7h-290.7v-62.7h228v-228zM677.3-5.15h290.7v290.7h-62.7v-228h-228zM56 285.55v-290.7h290.7v62.7h-228v228zM56 479.35h912v-62.7h-912v62.7z" />
<glyph unicode="&#xe97d;" glyph-name="download2" d="M956.8 755.2h-204.8v-67.2h204.8v-681.6h-889.6v681.6h204.8v67.2h-204.8c-35.2 0-67.2-32-67.2-67.2v-681.6c0-38.4 32-70.4 67.2-70.4h886.4c38.4 0 67.2 32 67.2 67.2v684.8c3.2 35.2-28.8 67.2-64 67.2v0zM675.2 400c-12.8 12.8-35.2 12.8-44.8 0l-83.2-83.2v540.8c0 19.2-16 35.2-35.2 35.2s-35.2-16-35.2-35.2v-531.2l-80 80c-16 12.8-35.2 12.8-48 0s-12.8-35.2 0-48l132.9-132.9c6.2-10.4 17.5-17.5 30.3-17.5 0.3 0 0.5 0 0.7 0 0.6 0 1.2 0 1.7 0 8.2-0.2 16.5 3 23.1 9.6l137.6 137.6c12.9 12.8 12.9 32 0.1 44.8z" />
<glyph unicode="&#xe97e;" glyph-name="sad" d="M838.4 384c-12.8 38.4-32 67.2-76.8 86.4-44.8 16-80 6.4-115.2-12.8-16-9.6-22.4-32-9.6-51.2 3.2-6.4 12.8-9.6 19.2-12.8 12.8-3.2 25.6-3.2 35.2 3.2s25.6 16 44.8 6.4c19.2-6.4 25.6-22.4 28.8-35.2s12.8-19.2 25.6-25.6c6.4-3.2 16-3.2 22.4-3.2 22.4 6.4 32 25.6 25.6 44.8v0zM377.6 454.4c-32 19.2-70.4 32-115.2 12.8-44.8-16-67.2-48-76.8-86.4-6.4-19.2 6.4-38.4 25.6-44.8 6.4-3.2 16 0 22.4 3.2 12.8 3.2 22.4 12.8 25.6 25.6s9.6 25.6 28.8 35.2c19.2 6.4 35.2 0 44.8-6.4s22.4-6.4 35.2-3.2c6.4 3.2 16 6.4 19.2 12.8 12.8 19.2 6.4 41.6-9.6 51.2v0zM512 960c-281.6 0-512-230.4-512-512s230.4-512 512-512 512 230.4 512 512-230.4 512-512 512v0zM822.4 137.6c-83.2-83.2-192-128-310.4-128s-227.2 44.8-310.4 128c-83.2 83.2-128 192-128 310.4s44.8 227.2 128 310.4c83.2 83.2 192 128 310.4 128s227.2-44.8 310.4-128c83.2-83.2 128-192 128-310.4s-44.8-227.2-128-310.4v0zM726.4 211.2c-3.2 3.2-64 89.6-214.4 89.6s-211.2-86.4-214.4-89.6c-9.6-16-6.4-38.4 9.6-51.2 6.4-3.2 12.8-6.4 22.4-6.4 12.8 0 22.4 6.4 28.8 16 0 0 41.6 57.6 153.6 57.6 108.8 0 153.6-57.6 153.6-57.6 6.4-9.6 19.2-16 28.8-16 6.4 0 16 3.2 22.4 6.4 16 12.8 19.2 35.2 9.6 51.2v0z" />
</font>
</defs>
</svg>
